<?xml version="1.0" encoding="utf-8"?>
<!-- Generator: Adobe Illustrator 25.0.1, SVG Export Plug-In . SVG Version: 6.00 Build 0)  -->
<svg version="1.1" id="Graphics_Navbar_Toolbar_Icons_Grey_Arrow_Right"
	 xmlns="http://www.w3.org/2000/svg" xmlns:xlink="http://www.w3.org/1999/xlink" x="0px" y="0px" width="18.5px" height="10.3px"
	 viewBox="0 0 18.5 10.3" style="enable-background:new 0 0 18.5 10.3;" xml:space="preserve">
<style type="text/css">
	.st0{fill:#8C8C8C;}
</style>
<path id="Arrow" class="st0" d="M17.7,8.6l-7.3-7.2l0,0L9.3,0.3l0,0l0,0L8.2,1.4l0,0L0.8,8.7C0.5,9,0.5,9.5,0.8,9.8c0,0,0,0,0,0
	c0.3,0.3,0.8,0.3,1.1,0l7.3-7.2l7.3,7.2c0.3,0.3,0.8,0.3,1.1,0c0.1-0.1,0.2-0.3,0.2-0.6C17.9,9,17.9,8.8,17.7,8.6z"/>
</svg>
