<?xml version="1.0" encoding="utf-8"?>
<!-- Generator: Adobe Illustrator 25.0.1, SVG Export Plug-In . SVG Version: 6.00 Build 0)  -->
<svg version="1.1" id="Layer_1" xmlns="http://www.w3.org/2000/svg" xmlns:xlink="http://www.w3.org/1999/xlink" x="0px" y="0px"
	 width="40.1px" height="40.1px" viewBox="0 0 40.1 40.1" style="enable-background:new 0 0 40.1 40.1;" xml:space="preserve">
<style type="text/css">
	.st0{fill:none;stroke:#313131;stroke-width:0.749;stroke-miterlimit:10;}
	.st1{fill:#313131;}
</style>
<circle class="st0" cx="20.1" cy="20.1" r="19.7"/>
<g>
	<polygon class="st1" points="24.3,11.5 22.1,16.4 19.9,11.5 19.1,11.5 21.7,17.4 20.5,20.2 21.3,20.2 25.2,11.5 	"/>
	<path class="st1" d="M15.5,13.7c-0.5,0-1,0.1-1.4,0.3c-0.5,0.2-0.8,0.6-1.2,1v-3.6h-0.8v8.9H13v-1.2c0.3,0.4,0.7,0.8,1.1,1
		c0.4,0.2,0.9,0.3,1.4,0.3c0.9,0,1.7-0.3,2.3-1c0.6-0.6,1-1.5,1-2.4c0-0.9-0.3-1.8-1-2.4C17.3,14,16.4,13.6,15.5,13.7z M15.5,19.6
		c-1.4,0-2.6-1.2-2.6-2.6s1.2-2.6,2.6-2.6s2.6,1.2,2.6,2.6S17,19.6,15.5,19.6z"/>
</g>
<g>
	<polygon class="st1" points="17.6,26.4 15.5,21.7 14.6,21.7 17.5,28.1 17.7,28.1 20.6,21.7 19.7,21.7 	"/>
	<path class="st1" d="M27.5,22.5c-0.6-0.6-1.5-1-2.3-1c-0.5,0-1,0.1-1.4,0.3c-0.4,0.2-0.8,0.6-1.1,1v-1.2h-0.8v8.8h0.8V27
		c0.3,0.4,0.7,0.7,1.2,0.9c1.3,0.6,2.8,0.3,3.7-0.7c0.6-0.6,1-1.5,1-2.4C28.5,24,28.2,23.1,27.5,22.5z M25.2,27.5
		c-1.4,0-2.6-1.2-2.6-2.6c0-1.4,1.2-2.6,2.6-2.6s2.6,1.2,2.6,2.6C27.8,26.3,26.6,27.5,25.2,27.5z"/>
</g>
</svg>
