<svg xmlns="http://www.w3.org/2000/svg" width="19.484" height="27.378" viewBox="0 0 19.484 27.378">
  <g id="Group_3" data-name="Group 3" transform="translate(0.889 0.889)">
    <path id="Rectangle" d="M0,0H17.707a0,0,0,0,1,0,0V16.32A3.307,3.307,0,0,1,14.4,19.627H3.307A3.307,3.307,0,0,1,0,16.32V0A0,0,0,0,1,0,0Z" transform="translate(0 5.973)" fill="none" stroke="#fff" stroke-linecap="round" stroke-linejoin="round" stroke-miterlimit="10" stroke-width="1.778"/>
    <path id="Rectangle-2" data-name="Rectangle" d="M0,0H7.093a4.533,4.533,0,0,1,4.533,4.533h0A4.533,4.533,0,0,1,7.093,9.067H0" transform="translate(4.373 11.627) rotate(-90)" fill="none" stroke="#fff" stroke-linecap="round" stroke-linejoin="round" stroke-miterlimit="10" stroke-width="1.778"/>
  </g>
</svg>
