<svg xmlns="http://www.w3.org/2000/svg" width="15.532" height="15.532" viewBox="0 0 15.532 15.532">
  <path id="Combined_Shape_Copy" data-name="Combined Shape Copy" d="M4.564,15.485a5.738,5.738,0,0,1-1.885-.361,3.809,3.809,0,0,1-1.376-.9,3.811,3.811,0,0,1-.9-1.375,5.757,5.757,0,0,1-.361-1.885C.009,10.138,0,9.862,0,7.766s.009-2.372.047-3.2A5.738,5.738,0,0,1,.408,2.679,3.8,3.8,0,0,1,1.3,1.3a3.8,3.8,0,0,1,1.376-.9A5.738,5.738,0,0,1,4.564.047C5.394.009,5.67,0,7.766,0s2.371.009,3.2.047a5.757,5.757,0,0,1,1.885.361,3.811,3.811,0,0,1,1.375.9,3.809,3.809,0,0,1,.9,1.376,5.738,5.738,0,0,1,.361,1.885c.038.83.047,1.106.047,3.2s-.009,2.371-.047,3.2a5.757,5.757,0,0,1-.361,1.885,3.98,3.98,0,0,1-2.272,2.272,5.757,5.757,0,0,1-1.885.361c-.831.038-1.106.047-3.2.047S5.394,15.523,4.564,15.485ZM4.628,1.445a4.28,4.28,0,0,0-1.442.267,2.41,2.41,0,0,0-.893.581,2.41,2.41,0,0,0-.581.893,4.28,4.28,0,0,0-.267,1.442C1.408,5.452,1.4,5.7,1.4,7.766s.008,2.314.045,3.138a4.285,4.285,0,0,0,.267,1.442,2.417,2.417,0,0,0,.581.893,2.41,2.41,0,0,0,.893.581,4.3,4.3,0,0,0,1.442.267c.824.037,1.071.045,3.138.045s2.314-.008,3.138-.045a4.31,4.31,0,0,0,1.442-.267,2.578,2.578,0,0,0,1.474-1.474,4.31,4.31,0,0,0,.267-1.442c.037-.824.045-1.071.045-3.138s-.008-2.314-.045-3.138a4.3,4.3,0,0,0-.267-1.442,2.41,2.41,0,0,0-.581-.893,2.417,2.417,0,0,0-.893-.581A4.285,4.285,0,0,0,10.9,1.445C10.08,1.408,9.833,1.4,7.766,1.4S5.452,1.408,4.628,1.445Zm-.85,6.322a3.988,3.988,0,1,1,3.988,3.988A3.992,3.992,0,0,1,3.778,7.766Zm1.4,0A2.588,2.588,0,1,0,7.766,5.178,2.592,2.592,0,0,0,5.178,7.766Zm5.8-4.145a.932.932,0,1,1,.932.932A.933.933,0,0,1,10.979,3.621Z" fill="#fff"/>
</svg>
