<svg xmlns="http://www.w3.org/2000/svg" viewBox="0 0 118.3 16.2" >
  <g>
    <path d="M5.9,10.3H3.3v5.6H0V0.2h6.7c0.7,0,1.4,0.1,2,0.3c0.6,0.2,1.2,0.5,1.6,1c0.4,0.4,0.8,1,1,1.6s0.4,1.3,0.4,2.2
      c0,1.1-0.2,2-0.7,2.8C10.7,8.8,10,9.4,9.3,9.8l3.3,6.2H8.9L5.9,10.3z M6.3,7.4c0.6,0,1.1-0.2,1.6-0.5C8.3,6.5,8.5,6,8.5,5.3
      c0-0.7-0.2-1.3-0.6-1.6C7.5,3.3,7,3.1,6.3,3.1H3.2v4.3H6.3z"/>
    <path d="M35.2,0c1.2,0,2.3,0.2,3.3,0.6c1,0.4,1.9,0.9,2.6,1.6s1.3,1.6,1.7,2.6c0.4,1,0.6,2.1,0.6,3.3c0,1.2-0.2,2.3-0.6,3.3
      c-0.4,1-1,1.8-1.7,2.6c-0.7,0.7-1.6,1.2-2.6,1.6c-1,0.4-2.1,0.6-3.3,0.6c-1.2,0-2.3-0.2-3.3-0.6c-1-0.4-1.9-0.9-2.6-1.6
      c-0.7-0.7-1.3-1.6-1.7-2.6c-0.4-1-0.6-2.1-0.6-3.3c0-1.2,0.2-2.3,0.6-3.3c0.4-1,1-1.8,1.7-2.6s1.6-1.2,2.6-1.6
      C32.9,0.2,34,0,35.2,0z M35.2,2.9c-0.7,0-1.4,0.1-2,0.4c-0.6,0.2-1.1,0.6-1.5,1c-0.4,0.4-0.8,1-1,1.6c-0.2,0.6-0.4,1.4-0.4,2.2
      c0,0.8,0.1,1.5,0.4,2.2c0.2,0.6,0.6,1.2,1,1.6c0.4,0.4,0.9,0.8,1.5,1c0.6,0.2,1.3,0.4,2,0.4c0.7,0,1.4-0.1,2-0.4s1.1-0.6,1.5-1
      c0.4-0.4,0.8-1,1-1.6C39.9,9.6,40,8.9,40,8.1c0-0.8-0.1-1.5-0.4-2.2c-0.2-0.6-0.6-1.2-1-1.6s-0.9-0.8-1.5-1S35.9,2.9,35.2,2.9z"/>
    <path d="M65.2,0.2c0.7,0,1.4,0.1,2,0.3s1.1,0.4,1.5,0.8s0.8,0.8,1,1.4c0.2,0.5,0.4,1.2,0.4,1.9c0,0.8-0.1,1.4-0.4,1.9
      s-0.7,0.9-1.1,1.2c0.6,0.2,1.1,0.7,1.5,1.3c0.4,0.6,0.6,1.4,0.6,2.4c0,0.8-0.1,1.4-0.4,2c-0.3,0.6-0.6,1-1,1.4
      c-0.4,0.4-1,0.7-1.6,0.9c-0.6,0.2-1.3,0.3-2,0.3h-7V0.2H65.2z M61.9,6.5H65c0.5,0,1-0.1,1.3-0.4c0.3-0.3,0.5-0.7,0.5-1.3
      c0-0.6-0.2-1-0.5-1.3c-0.4-0.3-0.8-0.4-1.4-0.4h-3V6.5z M61.9,13.1h3.4c0.6,0,1.1-0.1,1.5-0.4s0.6-0.8,0.6-1.4s-0.2-1.2-0.6-1.5
      c-0.4-0.3-0.9-0.5-1.5-0.5h-3.5V13.1z"/>
    <path d="M86.2,15.9V0.2h3.3v15.7H86.2z"/>
    <path d="M115.5,15.9l-6.9-9.7v9.7h-3.3V0.2h2.8L115,10V0.2h3.2v15.7H115.5z"/>
  </g>
</svg>