<?xml version="1.0" standalone="no"?>
<!DOCTYPE svg PUBLIC "-//W3C//DTD SVG 1.1//EN" "http://www.w3.org/Graphics/SVG/1.1/DTD/svg11.dtd" >
<svg xmlns="http://www.w3.org/2000/svg" xmlns:xlink="http://www.w3.org/1999/xlink" version="1.1">
<metadata>
Created by FontForge 20170731 at Tue Jun 22 09:23:24 2021
 By Aleksey,,,
Copyright (c) 2016 Swiss Typefaces. All rights reserved.
</metadata>
<defs>
<font id="SangBleuSans-Bold" horiz-adv-x="628" >
  <font-face 
    font-family="SangBleu Sans"
    font-weight="700"
    font-stretch="normal"
    units-per-em="2048"
    panose-1="2 0 8 4 0 0 0 0 0 0"
    ascent="1638"
    descent="-410"
    x-height="1026"
    cap-height="1612"
    bbox="-106 -618 2658 2130"
    underline-thickness="133"
    underline-position="-415"
    unicode-range="U+0020-FB02"
  />
<missing-glyph horiz-adv-x="1323" 
d="M172 0v1612h979v-1612h-979zM303 1489v-1366h715v1366h-715z" />
    <glyph glyph-name=".notdef" horiz-adv-x="1323" 
d="M172 0v1612h979v-1612h-979zM303 1489v-1366h715v1366h-715z" />
    <glyph glyph-name=".null" horiz-adv-x="0" 
 />
    <glyph glyph-name="nonmarkingreturn" horiz-adv-x="682" 
 />
    <glyph glyph-name="space" unicode=" " horiz-adv-x="450" 
 />
    <glyph glyph-name="exclam" unicode="!" horiz-adv-x="716" 
d="M170 1606q77 28 184 28q108 0 185 -28q-9 -219 -31 -387.5t-45.5 -258t-51.5 -222.5t-44 -271h-25q-14 139 -42 271.5t-52.5 222.5t-47 258.5t-30.5 386.5zM158 172q0 83 58.5 142t141.5 59t142 -59t59 -142t-59 -142t-142 -59t-141.5 59t-58.5 142z" />
    <glyph glyph-name="quotedbl" unicode="&#x22;" horiz-adv-x="815" 
d="M719 1612l-72 -451h-129l-72 451h273zM369 1612l-72 -451h-129l-72 451h273z" />
    <glyph glyph-name="numbersign" unicode="#" horiz-adv-x="1384" 
d="M821 561l64 443h-318l-63 -443h317zM741 0l64 440h-318l-63 -440h-127l63 440h-264l17 121h264l63 443h-264l17 120h264l69 488h127l-69 -488h319l70 488h127l-70 -488h258l-16 -120h-258l-64 -443h258l-18 -121h-256l-64 -440h-129z" />
    <glyph glyph-name="dollar" unicode="$" horiz-adv-x="1323" 
d="M356 1241q0 -89 55 -151.5t185 -112.5v448q-119 -12 -179.5 -61.5t-60.5 -122.5zM977 322q0 56 -22.5 100t-67.5 77t-93.5 55.5t-117.5 45.5v-537q148 11 224.5 72.5t76.5 186.5zM596 -211v182q-297 11 -479 111v465h26q60 -233 168 -357.5t285 -128.5v566l-88 28
q-104 34 -180.5 85.5t-119.5 113.5t-63 127.5t-20 138.5q0 116 63.5 204.5t169 136t238.5 55.5v210h80v-208q263 -3 454 -101v-418h-26q-125 431 -428 431v-482l137 -45q68 -23 123 -48.5t112.5 -66.5t96.5 -89.5t63.5 -118.5t24.5 -152q0 -109 -44.5 -196t-122 -141.5
t-176.5 -84t-214 -33.5v-184h-80z" />
    <glyph glyph-name="percent" unicode="%" horiz-adv-x="1888" 
d="M70 1155q0 199 103 319.5t261 120.5t261.5 -120.5t103.5 -319.5q0 -200 -103.5 -323t-261.5 -123t-261 123t-103 323zM498 0h-131l1024 1538h131zM256 1155q0 -191 39 -287t139 -96q52 0 87 26t54 78t27 118.5t8 160.5q0 92 -8 157.5t-27 117.5t-54 78t-87 26t-87.5 -26
t-55 -77.5t-27.5 -118t-8 -157.5zM1090 420q0 199 103 319.5t261 120.5t261.5 -120.5t103.5 -319.5q0 -200 -103.5 -323.5t-261.5 -123.5t-261 123.5t-103 323.5zM1276 420q0 -92 8 -159t27.5 -120t55 -79.5t87.5 -26.5t87 26.5t54 79.5t27 119.5t8 159.5q0 91 -8 156.5
t-27 117t-54 77.5t-87 26q-100 0 -139 -95t-39 -282z" />
    <glyph glyph-name="ampersand" unicode="&#x26;" horiz-adv-x="1757" 
d="M842 1053l35 -39q58 24 96.5 118t38.5 199q0 101 -43 163t-135 62q-77 0 -122.5 -50.5t-45.5 -129.5q0 -43 14.5 -86.5t44 -88t54 -74.5t63.5 -74zM1360 0l-172 193q-208 -222 -535 -222q-129 0 -236.5 38t-177 102t-107.5 146t-38 173q0 160 124.5 277.5t348.5 171.5
q-70 -60 -107.5 -154.5t-37.5 -200.5q0 -78 22 -148.5t63.5 -127t109 -90t151.5 -33.5q192 0 340 156l-530 591q-203 221 -203 412q0 152 131 253t328 101q86 0 161 -16.5t137 -51t98 -94t36 -137.5q0 -117 -100 -200.5t-289 -124.5l409 -457q79 178 135 428h133
q-74 -320 -182 -526l412 -459h-424z" />
    <glyph glyph-name="quotesingle" unicode="'" horiz-adv-x="464" 
d="M96 1612h273l-72 -451h-129z" />
    <glyph glyph-name="parenleft" unicode="(" horiz-adv-x="610" 
d="M600 -496h-135q-155 201 -248.5 477.5t-93.5 577.5q0 302 93.5 577t248.5 476h135q-162 -208 -254 -485t-92 -568q0 -293 92 -570t254 -485z" />
    <glyph glyph-name="parenright" unicode=")" horiz-adv-x="610" 
d="M10 1612h135q155 -201 248.5 -476t93.5 -577q0 -301 -93.5 -577.5t-248.5 -477.5h-135q162 208 254 485t92 570q0 291 -92 568t-254 485z" />
    <glyph glyph-name="asterisk" unicode="*" horiz-adv-x="698" 
d="M399 1612v-226l226 76l34 -98l-225 -74l137 -190l-82 -62l-141 193l-137 -191l-86 60l137 188l-221 76l31 100l223 -78v226h104z" />
    <glyph glyph-name="plus" unicode="+" horiz-adv-x="1175" 
d="M643 0h-131v455h-455v123h455v434h131v-434h453v-123h-453v-455z" />
    <glyph glyph-name="comma" unicode="," horiz-adv-x="634" 
d="M117 172q0 85 57 143t143 58q91 0 146 -59.5t55 -157.5q0 -80 -38 -168t-111 -165.5t-164 -117.5l-6 14q45 34 77.5 116.5t32.5 146.5q-87 0 -139.5 52.5t-52.5 137.5z" />
    <glyph glyph-name="hyphen" unicode="-" horiz-adv-x="718" 
d="M96 436v166h527v-166h-527z" />
    <glyph glyph-name="period" unicode="." horiz-adv-x="634" 
d="M117 172q0 83 58.5 142t141.5 59t142 -59t59 -142t-59 -142t-142 -59t-141.5 59t-58.5 142z" />
    <glyph glyph-name="slash" unicode="/" horiz-adv-x="897" 
d="M117 -135h-123l786 1845h123z" />
    <glyph glyph-name="zero" unicode="0" horiz-adv-x="1462" 
d="M731 1513q297 0 471 -203t174 -567q0 -365 -174 -568.5t-471 -203.5t-471 203.5t-174 568.5q0 364 174 567t471 203zM731 45q46 0 88 20.5t82.5 71.5t69.5 128.5t47 200t18 277.5t-18 277.5t-47 199.5t-69.5 128t-82.5 71.5t-88 20.5t-88 -20.5t-82.5 -71.5t-69.5 -128
t-47 -199.5t-18 -277.5t18 -277.5t47 -200t69.5 -128.5t82.5 -71.5t88 -20.5z" />
    <glyph glyph-name="one" unicode="1" horiz-adv-x="831" 
d="M612 0h-311v1280q-93 0 -266 39v24q149 13 306.5 57.5t238.5 106.5h32v-1507z" />
    <glyph glyph-name="two" unicode="2" horiz-adv-x="1253" 
d="M-20 0v27q104 84 201.5 172t210 208t194.5 233t137 239.5t55 234.5q0 132 -76 199t-190 67q-143 0 -238.5 -86t-107.5 -225h-37q0 191 138 317.5t378 126.5q204 0 334.5 -96t130.5 -270q0 -120 -61.5 -239t-179 -232.5t-254.5 -213t-322 -210.5h811v-252h-1124z" />
    <glyph glyph-name="three" unicode="3" horiz-adv-x="1257" 
d="M502 1389q-71 0 -135.5 -21.5t-126 -76t-97.5 -136.5l-32 12q54 170 197 258t315 88q196 0 316 -69t120 -184q0 -126 -93.5 -204.5t-299.5 -109.5q245 -44 367 -172t122 -305q0 -99 -43 -188.5t-122.5 -158.5t-202.5 -110t-271 -41q-118 0 -229.5 43t-178.5 111t-67 137
q0 58 34.5 89.5t90.5 31.5q43 0 74.5 -25t48 -62.5t37 -81.5t40 -81.5t58 -62.5t90.5 -25q102 0 173.5 49.5t104.5 130.5t33 185q0 83 -29.5 149t-78.5 105t-108.5 59t-123.5 20q-104 0 -200 -45v39q202 113 326 236.5t124 236.5q0 86 -62.5 132.5t-170.5 46.5z" />
    <glyph glyph-name="four" unicode="4" horiz-adv-x="1402" 
d="M1028 0h-311v352h-703v49l979 1155h35v-948h313v-256h-313v-352zM311 608h406v484z" />
    <glyph glyph-name="five" unicode="5" horiz-adv-x="1337" 
d="M207 383q45 0 78 -18.5t52.5 -48.5t36.5 -66t36.5 -72t44.5 -66t69 -48.5t103 -18.5q51 0 97.5 21.5t86.5 64t64 117t24 170.5q0 181 -98.5 278t-247.5 97q-55 0 -109 -13t-118.5 -53t-110.5 -104l-70 4l177 848h852l-37 -269h-775l-75 -348q55 58 155 89.5t232 31.5
q129 0 236 -37.5t177.5 -101.5t109 -149.5t38.5 -182.5q0 -234 -178.5 -385.5t-454.5 -151.5q-130 0 -251 41t-195 108.5t-74 139.5q0 49 33 86t92 37z" />
    <glyph glyph-name="six" unicode="6" horiz-adv-x="1353" 
d="M1124 1589l13 -30q-276 -118 -440 -296.5t-238 -437.5q58 82 145 125t184 43q71 0 138 -18t129.5 -57.5t109.5 -97t75 -143.5t28 -190q0 -103 -43.5 -197t-121 -164.5t-191.5 -112.5t-246 -42q-177 0 -307.5 76.5t-198.5 213.5t-68 317q0 183 77 345.5t216.5 289
t326 221.5t412.5 155zM684 881q-132 0 -198 -104.5t-66 -297.5q0 -86 12 -158.5t38.5 -137t77.5 -101.5t122 -37q130 0 196 116t66 320q0 400 -248 400z" />
    <glyph glyph-name="seven" unicode="7" horiz-adv-x="1269" 
d="M1079 1206h-942v269h1137l16 -29l-1011 -1630l-283 186z" />
    <glyph glyph-name="eight" unicode="8" horiz-adv-x="1388" 
d="M690 -29q-270 0 -432 108t-162 286q0 131 106.5 230t299.5 140l-15 8q-162 95 -238.5 193.5t-76.5 224.5q0 114 76 199t193 125.5t255 40.5q149 0 269.5 -37.5t191 -107t70.5 -158.5q0 -68 -36.5 -125.5t-97.5 -97t-131.5 -66t-148.5 -39.5l168 -96q159 -89 235 -185
t76 -221q0 -184 -158.5 -303t-443.5 -119zM668 977l143 -82q180 99 180 285q0 119 -77.5 186.5t-217.5 67.5q-114 0 -192 -51.5t-78 -147.5q0 -34 11.5 -64t28 -51.5t52 -48t65 -44.5t85.5 -50zM692 63q150 0 242 63t92 167q0 45 -21 86t-64.5 79.5t-86.5 67.5t-109 68
l-239 139q-174 -124 -174 -354q0 -63 21 -118t63 -100t113 -71.5t163 -26.5z" />
    <glyph glyph-name="nine" unicode="9" horiz-adv-x="1318" 
d="M215 -106l-12 30q276 118 440 296.5t238 436.5q-58 -82 -145.5 -125t-184.5 -43q-71 0 -138 18t-129.5 57.5t-109 97t-74.5 143.5t-28 190q0 103 43.5 197t121 164.5t191.5 112.5t246 42q267 0 420 -166t153 -440q0 -183 -77 -345t-216.5 -288.5t-326 -222t-412.5 -155.5
zM655 602q132 0 198.5 104.5t66.5 297.5q0 86 -12 158.5t-38.5 137t-77.5 101.5t-122 37q-130 0 -196 -116.5t-66 -320.5q0 -399 247 -399z" />
    <glyph glyph-name="colon" unicode=":" horiz-adv-x="716" 
d="M158 848q0 83 58.5 142t141.5 59t142 -59t59 -142t-59 -142t-142 -59t-141.5 59t-58.5 142zM158 172q0 83 58.5 142t141.5 59t142 -59t59 -142t-59 -142t-142 -59t-141.5 59t-58.5 142z" />
    <glyph glyph-name="semicolon" unicode=";" horiz-adv-x="716" 
d="M158 848q0 83 58.5 142t141.5 59t142 -59t59 -142t-59 -142t-142 -59t-141.5 59t-58.5 142zM158 172q0 85 57 143t143 58q91 0 146 -59.5t55 -157.5q0 -80 -38 -168t-111 -165.5t-164 -117.5l-6 14q45 34 77.5 116.5t32.5 146.5q-87 0 -139.5 52.5t-52.5 137.5z" />
    <glyph glyph-name="less" unicode="&#x3c;" horiz-adv-x="1110" 
d="M57 575l977 445v-141l-821 -365l821 -360v-142l-977 443v120z" />
    <glyph glyph-name="equal" unicode="=" horiz-adv-x="1056" 
d="M981 655h-905v123h905v-123zM981 266h-905v125h905v-125z" />
    <glyph glyph-name="greater" unicode="&#x3e;" horiz-adv-x="1110" 
d="M1053 575v-120l-977 -443v142l823 360l-823 365v141z" />
    <glyph glyph-name="question" unicode="?" horiz-adv-x="1042" 
d="M14 1389q5 95 126.5 170t346.5 75q246 0 383.5 -90t137.5 -256q0 -68 -30 -126.5t-78.5 -101t-107 -82t-116.5 -78.5t-106.5 -81t-78.5 -99t-30 -124q0 -74 16 -121l-12 -8q-92 58 -145.5 146.5t-53.5 185.5q0 59 24 109.5t62 87t84.5 69.5t93 65t84.5 66t62 80t24 100
q0 92 -44.5 140.5t-129.5 48.5q-55 0 -94.5 -31t-64 -74.5t-50 -87.5t-67.5 -75t-100 -31t-97 32.5t-39 90.5zM287 172q0 83 58.5 142t141.5 59t142 -59t59 -142t-59 -142t-142 -59t-141.5 59t-58.5 142z" />
    <glyph glyph-name="at" unicode="@" horiz-adv-x="1888" 
d="M1698 930q0 147 -51.5 264t-142.5 191t-212.5 112.5t-265.5 38.5q-192 0 -350.5 -60t-263.5 -164.5t-162 -245.5t-57 -302q0 -321 208 -509.5t564 -188.5q358 0 594 174l36 -97q-247 -178 -651 -178q-249 0 -446 98.5t-309.5 282.5t-112.5 424q0 144 44 276t127.5 239
t198 186.5t262 123t312.5 43.5q167 0 311 -48t251.5 -136.5t168.5 -223.5t61 -300q0 -122 -36.5 -237t-100 -205t-159 -144.5t-205.5 -54.5q-79 0 -142 21.5t-99 55t-54.5 71t-18.5 73.5h-2q-36 -79 -108.5 -136t-163.5 -57q-130 0 -220.5 105t-90.5 258q0 102 35.5 201
t95 176.5t132.5 137.5t152 92t150 32q47 0 80.5 -17.5t51.5 -48t26.5 -60.5t11.5 -65h4l47 156h199l-170 -627q-78 -272 82 -272q75 0 140 32t110 86t77 124.5t47 147.5t15 155zM745 383q51 0 95 25t73.5 60.5t57.5 92t43 99.5t33 104q12 34 23 76.5t23 101t13.5 111
t-5.5 99t-34 75t-72 28.5q-87 0 -175.5 -106.5t-143.5 -264.5t-55 -304q0 -197 124 -197z" />
    <glyph glyph-name="A" unicode="A" horiz-adv-x="1556" 
d="M670 1364l-240 -645h485zM1188 0l-205 537h-621l-200 -537h-142l615 1612h285l616 -1612h-348z" />
    <glyph glyph-name="B" unicode="B" horiz-adv-x="1529" 
d="M199 1612h473q107 0 199.5 -11.5t179.5 -39.5t148.5 -71.5t98.5 -112.5t37 -158q0 -143 -107.5 -238.5t-275.5 -116.5q99 -9 182.5 -36t152.5 -73.5t108 -120.5t39 -169q0 -106 -38.5 -187t-105 -133t-164 -85t-206 -46.5t-240.5 -13.5h-481v1612zM625 1495h-90v-608h90
q105 0 178 21.5t113 64t56.5 95t16.5 124.5t-16.5 124.5t-56.5 94.5t-112.5 63t-178.5 21zM535 117h161q200 0 291.5 74t91.5 253q0 184 -91 258t-292 74h-161v-659z" />
    <glyph glyph-name="C" unicode="C" horiz-adv-x="1828" 
d="M106 805q0 133 33.5 253t107.5 227t182 184.5t267.5 123t354.5 45.5q361 0 612 -135v-454h-29q-71 248 -218.5 365.5t-373.5 117.5q-263 0 -422 -189.5t-159 -537.5t159 -537.5t422 -189.5q462 0 600 483h29v-455q-249 -135 -631 -135q-193 0 -351 45.5t-265 123.5
t-180 185t-105.5 227t-32.5 253z" />
    <glyph glyph-name="D" unicode="D" horiz-adv-x="1785" 
d="M199 1612h512q294 0 512.5 -96.5t337 -279.5t118.5 -431q0 -374 -261.5 -589.5t-706.5 -215.5h-512v1612zM702 1487h-167v-1362h167q77 0 140 7t129 26t117 51t96.5 84t75.5 122.5t47.5 169t17.5 220.5q0 123 -17.5 221.5t-47.5 169t-75.5 123t-96.5 84t-117 51
t-129 26.5t-140 7z" />
    <glyph glyph-name="E" unicode="E" horiz-adv-x="1349" 
d="M199 0v1612h1075v-125h-739v-590h661v-129h-661v-643h739v-125h-1075z" />
    <glyph glyph-name="F" unicode="F" horiz-adv-x="1288" 
d="M199 0v1612h1095v-125h-759v-590h682v-129h-682v-768h-336z" />
    <glyph glyph-name="G" unicode="G" horiz-adv-x="1865" 
d="M461 805q0 -348 159 -537.5t422 -189.5q123 0 227.5 34.5t143.5 100.5v532h316v-559q-102 -98 -292 -156.5t-397 -58.5q-193 0 -351 45.5t-265 123.5t-180 185t-105.5 227t-32.5 253q0 110 24.5 212t74 196t128.5 171t182.5 134t242 88.5t301.5 31.5q361 0 612 -135v-454
h-29q-71 248 -218 365.5t-373 117.5q-130 0 -237.5 -47.5t-186.5 -137.5t-122.5 -228.5t-43.5 -313.5z" />
    <glyph glyph-name="H" unicode="H" horiz-adv-x="1822" 
d="M1288 0v768h-753v-768h-336v1612h336v-715h753v715h336v-1612h-336z" />
    <glyph glyph-name="I" unicode="I" horiz-adv-x="733" 
d="M199 0v1612h336v-1612h-336z" />
    <glyph glyph-name="J" unicode="J" horiz-adv-x="747" 
d="M561 1612v-1174q0 -55 -9.5 -104.5t-24.5 -91t-42.5 -82t-55 -72.5t-70.5 -67t-80 -61.5t-93.5 -59.5t-101 -57.5t-111.5 -59.5l-14 24q66 55 104.5 90t71.5 75t48 69t26 74t13.5 89t2.5 115v1293h336z" />
    <glyph glyph-name="K" unicode="K" horiz-adv-x="1624" 
d="M199 0v1612h336v-1612h-336zM1364 1612h164l-692 -709l794 -903h-424l-671 768z" />
    <glyph glyph-name="L" unicode="L" horiz-adv-x="1247" 
d="M535 1612v-1487h718v-125h-1054v1612h336z" />
    <glyph glyph-name="M" unicode="M" horiz-adv-x="2105" 
d="M1862 1612l75 -1612h-335l-70 1403l-442 -1403h-226l-493 1372l-62 -1372h-141l76 1612h383l448 -1272l393 1272h394z" />
    <glyph glyph-name="N" unicode="N" horiz-adv-x="1712" 
d="M1374 1612h139v-1612h-303l-872 1378v-1378h-139v1612h366l809 -1278v1278z" />
    <glyph glyph-name="O" unicode="O" horiz-adv-x="1974" 
d="M106 805q0 250 114.5 440.5t314 291.5t452.5 101t452.5 -101t314 -291.5t114.5 -440.5t-114.5 -441t-314 -292t-452.5 -101t-452.5 101t-314 292t-114.5 441zM1513 805q0 150 -27.5 273t-75.5 208t-115 143t-144 84.5t-164 26.5q-109 0 -202 -43.5t-166.5 -130
t-115.5 -230.5t-42 -331t42 -331t115.5 -230.5t166.5 -130t202 -43.5q87 0 164 26.5t144 84.5t115 143t75.5 208t27.5 273z" />
    <glyph glyph-name="P" unicode="P" horiz-adv-x="1454" 
d="M535 1495v-672h176q213 0 302 82t89 254t-89 254t-302 82h-176zM719 707h-184v-707h-336v1612h520q735 0 735 -453q0 -452 -735 -452z" />
    <glyph glyph-name="Q" unicode="Q" horiz-adv-x="1974" 
d="M1554 -356l-335 352q-116 -25 -232 -25q-253 0 -452.5 101t-314 292t-114.5 441t114.5 440.5t314 291.5t452.5 101t452.5 -101t314 -291.5t114.5 -440.5q0 -276 -135.5 -474.5t-370.5 -291.5l289 -301zM987 70q80 0 141 20l-292 305l94 94l325 -339q258 178 258 655
q0 150 -27.5 273t-75.5 208t-115 143t-144 84.5t-164 26.5q-109 0 -202 -43.5t-166.5 -130t-115.5 -230.5t-42 -331t42 -331t115.5 -230.5t166.5 -130t202 -43.5z" />
    <glyph glyph-name="R" unicode="R" horiz-adv-x="1579" 
d="M1059 1174q0 94 -27.5 158t-84 99t-129 49.5t-175.5 14.5h-108v-633h102q213 0 317.5 69t104.5 243zM535 0h-336v1612h422q114 0 207.5 -7t186 -24t162 -48t124 -76.5t82.5 -112.5t28 -152q0 -88 -27.5 -154.5t-82 -112t-122 -75t-159.5 -51.5l541 -799h-396l-481 743
h-149v-743z" />
    <glyph glyph-name="S" unicode="S" horiz-adv-x="1458" 
d="M680 78q375 0 375 272q0 63 -26.5 115t-76 90.5t-106 66.5t-129.5 52l-152 51q-399 131 -399 487q0 136 76.5 234t200.5 145t280 47q292 0 491 -108v-461h-28q-32 110 -73 193t-97 146t-131.5 95.5t-167.5 32.5q-146 0 -227.5 -56.5t-81.5 -154.5q0 -93 67.5 -167.5
t222.5 -131.5l185 -65q52 -19 92.5 -36t88 -42.5t82.5 -52t69.5 -64.5t56.5 -80.5t35.5 -98.5t13.5 -120q0 -101 -33.5 -184t-92 -140.5t-139.5 -96.5t-173 -57t-195 -18q-141 0 -282 30.5t-248 88.5v510h28q60 -253 178 -387.5t316 -134.5z" />
    <glyph glyph-name="T" unicode="T" horiz-adv-x="1433" 
d="M885 1487v-1487h-336v1487h-535v125h1405v-125h-534z" />
    <glyph glyph-name="U" unicode="U" horiz-adv-x="1681" 
d="M178 1612h336v-1041q0 -132 29 -222.5t87.5 -141.5t135 -72.5t182.5 -21.5q238 0 349.5 125t111.5 374v1000h147v-1014q0 -322 -167.5 -474.5t-526.5 -152.5q-684 0 -684 598v1043z" />
    <glyph glyph-name="V" unicode="V" horiz-adv-x="1550" 
d="M1364 1612h145l-587 -1612h-295l-586 1612h348l485 -1364z" />
    <glyph glyph-name="W" unicode="W" horiz-adv-x="2267" 
d="M2054 1612h146l-392 -1612h-342l-364 1307l-297 -1307h-342l-395 1612h368l297 -1348l307 1348h328l369 -1346z" />
    <glyph glyph-name="X" unicode="X" horiz-adv-x="1634" 
d="M1202 0l-471 672l-526 -672h-170l614 786l-579 826h397l393 -559l436 559h170l-526 -674l659 -938h-397z" />
    <glyph glyph-name="Y" unicode="Y" horiz-adv-x="1470" 
d="M537 0v639l-523 973h377l428 -813l492 813h145l-584 -975v-637h-335z" />
    <glyph glyph-name="Z" unicode="Z" horiz-adv-x="1427" 
d="M1352 1487l-938 -1362h919v-125h-1286v125l938 1362h-846v125h1213v-125z" />
    <glyph glyph-name="bracketleft" unicode="[" horiz-adv-x="528" 
d="M158 -496v2108h354v-119h-223v-1870h223v-119h-354z" />
    <glyph glyph-name="backslash" unicode="\" horiz-adv-x="897" 
d="M903 -135h-123l-786 1845h123z" />
    <glyph glyph-name="bracketright" unicode="]" horiz-adv-x="530" 
d="M373 1612v-2108h-355v119h224v1870h-224v119h355z" />
    <glyph glyph-name="asciicircum" unicode="^" horiz-adv-x="870" 
d="M500 1612l377 -738h-146l-297 574l-295 -574h-145l375 738h131z" />
    <glyph glyph-name="underscore" unicode="_" horiz-adv-x="903" 
d="M37 -133v133h829v-133h-829z" />
    <glyph glyph-name="grave" unicode="`" horiz-adv-x="589" 
d="M520 1237l-471 375h354l138 -375h-21z" />
    <glyph glyph-name="a" unicode="a" horiz-adv-x="1124" 
d="M524 104q62 0 109 50q-2 6 -2 32l4 314q-119 0 -193 -56t-82 -139q-11 -95 41.5 -148t122.5 -53zM872 -25q-91 0 -159.5 43t-79.5 136q-37 -90 -103 -136.5t-172 -46.5q-136 0 -222.5 80t-86.5 199q0 80 48 139.5t133 94.5t185 53t220 22l2 170q0 147 -35 204.5
t-108 57.5q-115 0 -115 -80q0 -23 11 -55.5t11 -60.5q0 -52 -34.5 -85.5t-100.5 -33.5q-56 0 -92.5 37t-36.5 98q0 99 113 172.5t293 73.5q76 0 134 -11t110.5 -41.5t85.5 -80.5t52 -131.5t17 -192.5l-6 -340q-1 -95 15 -129.5t59 -34.5q58 0 108 86l21 -10
q-77 -197 -267 -197z" />
    <glyph glyph-name="b" unicode="b" horiz-adv-x="1359" 
d="M471 0h-313v1612h313v-1612zM1274 510q0 -228 -137 -383.5t-344 -155.5q-124 0 -199.5 52.5t-122.5 156.5q82 -76 184 -76q127 0 209 114.5t82 291.5t-82 291t-209 114q-104 0 -184 -75q46 103 124 156t202 53q210 0 343.5 -150t133.5 -389z" />
    <glyph glyph-name="c" unicode="c" horiz-adv-x="1130" 
d="M416 578q0 -117 35.5 -216t112 -164t181.5 -65q98 0 176 62t113 190l35 -8q-38 -209 -149.5 -307.5t-307.5 -98.5q-228 0 -377 147t-149 378q0 115 35 209.5t92.5 157t134.5 105.5t157.5 62t164.5 19q158 0 265 -54t107 -145q0 -59 -39 -95t-96 -36q-58 0 -94 26.5
t-52.5 64t-31 75t-43 64t-76.5 26.5q-62 0 -107 -59.5t-66 -148t-21 -189.5z" />
    <glyph glyph-name="d" unicode="d" horiz-adv-x="1359" 
d="M889 1612h313v-1612h-313v1612zM86 510q0 228 137 383.5t344 155.5q124 0 199.5 -52.5t122.5 -156.5q-80 75 -184 75q-127 0 -209 -114t-82 -291t82 -291.5t209 -114.5q102 0 184 76q-46 -103 -124 -156t-202 -53q-210 0 -343.5 150t-133.5 389z" />
    <glyph glyph-name="e" unicode="e" horiz-adv-x="1177" 
d="M616 979q-89 0 -141 -80t-57 -201h354q5 75 -7.5 136.5t-50.5 103t-98 41.5zM1071 395l35 -10q-46 -218 -161.5 -316t-311.5 -98q-239 0 -393 147t-154 378q0 254 155 403.5t398 149.5q193 0 316.5 -114.5t140.5 -320.5h-682q-4 -87 16 -171t61 -154t111 -113t158 -43
q104 0 183 57.5t128 204.5z" />
    <glyph glyph-name="f" unicode="f" horiz-adv-x="782" 
d="M819 893h-293v-893h-313v893h-207v133h207q5 122 33.5 224t74 172.5t105 120t126 72.5t136.5 23q92 0 145.5 -38.5t53.5 -104.5q0 -54 -32 -90.5t-91 -36.5q-38 0 -65 13.5t-43.5 32t-32 37.5t-40 32.5t-57.5 13.5q-54 0 -80 -43t-22.5 -112t26.5 -151.5t62 -164.5h307
v-133z" />
    <glyph glyph-name="g" unicode="g" horiz-adv-x="1296" 
d="M569 436q93 0 131.5 69.5t38.5 201.5t-38.5 201t-131.5 69t-131.5 -69t-38.5 -201t38.5 -201.5t131.5 -69.5zM1192 -121q0 -98 -60.5 -176t-160 -124t-216.5 -69.5t-241 -23.5q-245 0 -372.5 62t-127.5 169q0 45 21.5 79t65.5 57.5t94.5 38t123.5 28.5q-97 18 -153.5 72
t-56.5 143q0 87 87 153t238 89q-159 29 -251.5 118t-92.5 212q0 146 132 244t347 98q91 0 185 -23h549v-113l-363 19q109 -92 109 -225q0 -146 -132.5 -244t-347.5 -98q-59 0 -127 10q-64 -22 -91 -53t-27 -74q0 -38 38.5 -52t141.5 -14h149q103 0 178.5 -6.5t147 -25.5
t116 -52t71 -88t26.5 -131zM506 -428q87 0 153.5 9t121 30t83.5 59.5t29 93.5q0 59 -35.5 93.5t-90 45.5t-138.5 11h-230q-19 0 -65 4q-111 -60 -111 -170q0 -89 77 -132.5t206 -43.5z" />
    <glyph glyph-name="h" unicode="h" horiz-adv-x="1271" 
d="M471 1612v-1612h-313v1612h313zM668 879q-138 0 -197 -121q35 153 128 222t222 69q324 0 324 -396v-653h-314v633q0 132 -45 189t-118 57z" />
    <glyph glyph-name="i" unicode="i" 
d="M133 1407q0 75 53.5 128.5t128.5 53.5t129 -53.5t54 -128.5t-54 -128.5t-129 -53.5t-128.5 53.5t-53.5 128.5zM471 1026v-1026h-313v1026h313z" />
    <glyph glyph-name="j" unicode="j" 
d="M139 1407q0 75 54 128.5t129 53.5t128.5 -53.5t53.5 -128.5t-53.5 -128.5t-128.5 -53.5t-129 53.5t-54 128.5zM158 12v1014h313v-895q0 -70 -13.5 -131.5t-36.5 -112t-63 -98t-82 -85.5t-105 -79.5t-121 -74.5t-140 -76l-16 26q66 56 104 91t71.5 75t48 68.5t25.5 74
t13 88.5t2 115z" />
    <glyph glyph-name="k" unicode="k" horiz-adv-x="1198" 
d="M471 1612v-1612h-313v1612h313zM979 1026h154l-369 -371l444 -655h-385l-352 526z" />
    <glyph glyph-name="l" unicode="l" 
d="M471 1612v-1612h-313v1612h313z" />
    <glyph glyph-name="m" unicode="m" horiz-adv-x="1916" 
d="M1323 879q-138 0 -197 -121q23 104 79.5 171t124.5 93.5t151 26.5q76 0 132.5 -22.5t89.5 -58.5t53.5 -89.5t27 -106.5t6.5 -119v-653h-313v633q0 246 -154 246zM664 879q-134 0 -193 -121q35 153 128 222t222 69q76 0 132.5 -22.5t89.5 -58.5t53.5 -89.5t27 -106.5
t6.5 -119v-653h-313v633q0 246 -153 246zM471 1026v-1026h-313v1026h313z" />
    <glyph glyph-name="n" unicode="n" horiz-adv-x="1271" 
d="M668 879q-138 0 -197 -121q35 153 128 222t222 69q324 0 324 -396v-653h-314v633q0 132 -45 189t-118 57zM471 1026v-1026h-313v1026h313z" />
    <glyph glyph-name="o" unicode="o" horiz-adv-x="1294" 
d="M1208 510q0 -113 -39.5 -212t-111 -171.5t-177.5 -114t-233 -41.5t-233 41.5t-177.5 114t-111 171.5t-39.5 212t39.5 212t111 171.5t177.5 114t233 41.5t233 -41.5t177.5 -114t111 -171.5t39.5 -212zM881 510q0 68 -5.5 128t-21 124t-40.5 109t-68 74.5t-99 29.5
t-99 -29.5t-67.5 -74.5t-40 -109t-21 -124t-5.5 -128t5.5 -128t21 -124t40 -109t67.5 -74.5t99 -29.5t99 29.5t68 74.5t40.5 109t21 124t5.5 128z" />
    <glyph glyph-name="p" unicode="p" horiz-adv-x="1359" 
d="M471 -496h-313v1522h313v-1522zM1274 510q0 -228 -137 -383.5t-344 -155.5q-124 0 -199.5 52.5t-122.5 156.5q82 -76 184 -76q127 0 209 114.5t82 291.5t-82 291t-209 114q-104 0 -184 -75q46 103 124 156t202 53q210 0 343.5 -150t133.5 -389z" />
    <glyph glyph-name="q" unicode="q" horiz-adv-x="1359" 
d="M1202 -496h-313v1522h313v-1522zM86 510q0 228 137 383.5t344 155.5q124 0 199.5 -52.5t122.5 -156.5q-80 75 -184 75q-127 0 -209 -114t-82 -291t82 -291.5t209 -114.5q102 0 184 76q-46 -103 -124 -156t-202 -53q-210 0 -343.5 150t-133.5 389z" />
    <glyph glyph-name="r" unicode="r" horiz-adv-x="903" 
d="M471 1026v-1026h-313v1026h313zM872 1034v-280q-115 16 -198 16q-161 0 -203 -74q27 79 58 136.5t78 105.5t113 72t152 24z" />
    <glyph glyph-name="s" unicode="s" horiz-adv-x="1028" 
d="M496 -29q-103 0 -193 25t-150.5 78t-60.5 125q0 51 31.5 82.5t85.5 31.5q40 0 66.5 -14.5t40.5 -38t24 -51.5t23 -56t32 -51.5t55.5 -38t88.5 -14.5q86 0 138 38.5t52 105.5q0 64 -52 111t-175 81l-84 23q-303 81 -303 327q0 137 119 227.5t311 90.5q90 0 169 -21
t132 -65.5t53 -104.5q0 -52 -32 -84.5t-85 -32.5q-39 0 -66 13t-41 33.5t-24 45.5t-22 50t-28.5 45.5t-49 33.5t-78.5 13q-72 0 -116 -34.5t-44 -90.5q0 -123 217 -182l84 -23q179 -47 255.5 -124t76.5 -210q0 -160 -129 -252t-321 -92z" />
    <glyph glyph-name="t" unicode="t" horiz-adv-x="901" 
d="M20 893v133h203v168l309 242v-410h365v-133h-365v-606q0 -99 32 -141t110 -42q57 0 104 29.5t99 104.5l32 -19q-114 -248 -368 -248q-168 0 -243 72t-75 240v610h-203z" />
    <glyph glyph-name="u" unicode="u" horiz-adv-x="1271" 
d="M801 238q-85 -267 -350 -267q-76 0 -134.5 24t-93.5 62t-57.5 91.5t-30.5 106t-8 112.5v659h313v-713q0 -207 150 -207q81 0 128.5 32.5t82.5 99.5zM801 0v1026h313v-1026h-313z" />
    <glyph glyph-name="v" unicode="v" horiz-adv-x="1077" 
d="M14 1026h357l270 -774l285 774h137l-389 -1026h-268z" />
    <glyph glyph-name="w" unicode="w" horiz-adv-x="1683" 
d="M799 1026h270l219 -774l244 774h137l-328 -1026h-309l-207 709l-172 -709h-309l-330 1026h357l229 -774z" />
    <glyph glyph-name="x" unicode="x" horiz-adv-x="1181" 
d="M776 0l-260 367l-321 -367h-160l409 467l-397 559h371l231 -328l289 328h160l-377 -428l426 -598h-371z" />
    <glyph glyph-name="y" unicode="y" horiz-adv-x="1163" 
d="M14 1026h357l317 -707l322 707h139l-715 -1524h-139l223 461z" />
    <glyph glyph-name="z" unicode="z" horiz-adv-x="1083" 
d="M1008 913l-580 -800h563v-113h-925v113l579 800h-518v113h881v-113z" />
    <glyph glyph-name="braceleft" unicode="{" 
d="M356 1335v-510q0 -131 -32 -188t-107 -78v-4q75 -21 107 -78t32 -188v-508q0 -38 1.5 -60.5t7.5 -42t15 -29t27.5 -16.5t41 -8.5t59.5 -1.5h24v-119h-81q-50 0 -87 7t-62 22.5t-40.5 34.5t-23.5 50t-10.5 62t-2.5 76v551q0 42 -5 73.5t-20 62t-46 47t-78 16.5v102
q47 0 78 16.5t46 47t20 62t5 73.5v553q0 45 2.5 76t10.5 62t23.5 50t40.5 34.5t62 22.5t87 7h81v-119h-24q-37 0 -59.5 -1.5t-41 -8.5t-27.5 -16.5t-15 -29t-7.5 -42t-1.5 -60.5z" />
    <glyph glyph-name="bar" unicode="|" horiz-adv-x="450" 
d="M293 -66h-135v1678h135v-1678z" />
    <glyph glyph-name="braceright" unicode="}" 
d="M272 825v510q0 38 -1.5 60t-7 42t-14.5 29.5t-27.5 16.5t-41 8.5t-59.5 1.5h-25v119h82q75 0 120.5 -15t68 -50.5t29.5 -76.5t7 -110v-553q0 -42 5.5 -73.5t20 -62t46 -47t78.5 -16.5v-102q-47 0 -78.5 -16.5t-46 -47t-20 -62t-5.5 -73.5v-551q0 -69 -7 -110t-29.5 -76.5
t-68 -50.5t-120.5 -15h-82v119h25q37 0 59.5 1.5t41 8.5t27.5 16.5t14.5 29.5t7 42t1.5 60v508q0 130 32.5 187.5t107.5 78.5v4q-75 21 -107.5 78.5t-32.5 187.5z" />
    <glyph glyph-name="asciitilde" unicode="~" horiz-adv-x="1021" 
d="M727 504q56 0 91.5 35t39.5 104h129q-7 -122 -77.5 -189t-182.5 -67q-52 0 -114.5 21.5t-110 47t-105 47t-100.5 21.5q-57 0 -92 -34t-39 -103h-131q7 122 78 189t184 67q61 0 127 -21.5t112.5 -48t99.5 -48t91 -21.5z" />
    <glyph glyph-name="uni00A0" unicode="&#xa0;" horiz-adv-x="450" 
 />
    <glyph glyph-name="exclamdown" unicode="&#xa1;" horiz-adv-x="716" 
d="M559 825q0 -83 -59 -141.5t-142 -58.5t-141.5 58.5t-58.5 141.5t58.5 142t141.5 59t142 -59t59 -142zM547 -508q-79 -29 -185 -29q-105 0 -184 29q7 179 22 305.5t34 202.5t38.5 140.5t40 163t33.5 226.5h33q13 -128 33.5 -226.5t40 -163.5t38.5 -141.5t34 -202.5
t22 -304z" />
    <glyph glyph-name="cent" unicode="&#xa2;" horiz-adv-x="1099" 
d="M410 578q0 -129 45.5 -238t130.5 -164v797q-56 -8 -97 -68.5t-60 -146t-19 -180.5zM1028 385l35 -8q-35 -194 -135.5 -293t-272.5 -111v-206h-69v204q-221 8 -363.5 153.5t-142.5 371.5q0 105 29 193t77 149t114 105.5t137 68.5t149 32v211h69v-206h9q158 0 265 -54
t107 -145q0 -59 -39 -95t-96 -36q-52 0 -86 20.5t-51 52.5t-29.5 65.5t-32 64t-47.5 43.5v-820q41 -12 84 -12q98 0 176 62t113 190z" />
    <glyph glyph-name="sterling" unicode="&#xa3;" horiz-adv-x="1363" 
d="M1309 260l20 -16q-77 -143 -145 -208t-148 -65q-54 0 -125.5 24t-161 48.5t-186.5 24.5q-67 0 -137 -16.5t-120 -35t-127.5 -29t-162.5 -1.5l9 77q160 0 270.5 131t110.5 347q0 65 -35 149h-293v113h241q-5 12 -32 69.5t-35.5 78t-24.5 63.5t-22 74t-6 61
q0 161 155 262.5t439 101.5q197 0 326.5 -60.5t129.5 -145.5q0 -59 -35 -93t-92 -34t-96 27t-61.5 65l-45 76t-64.5 65t-103 27q-224 0 -224 -238q0 -58 27 -123t70.5 -144t62.5 -132h385v-113h-352q4 -46 4 -63q0 -73 -41 -155t-104.5 -150.5t-131.5 -123t-129 -87.5l5 -9
q14 9 69.5 46t75.5 49.5t66 39.5t73.5 37.5t64 20.5t68.5 10q65 0 128 -20t103.5 -43.5t85.5 -43.5t79 -20q56 0 92.5 16.5t79.5 65.5z" />
    <glyph glyph-name="yen" unicode="&#xa5;" horiz-adv-x="1415" 
d="M1180 221h-349v-221h-313v221h-348v113h348v174h-348v113h317l-473 854h353l419 -762l467 762h148l-533 -854h312v-113h-349v-174h349v-113z" />
    <glyph glyph-name="brokenbar" unicode="&#xa6;" horiz-adv-x="442" 
d="M158 1612h127v-834h-127v834zM158 412h127v-834h-127v834z" />
    <glyph glyph-name="section" unicode="&#xa7;" horiz-adv-x="1263" 
d="M618 -461q-113 0 -231.5 31t-204.5 91t-86 132q0 44 34.5 76.5t88.5 32.5q48 0 88.5 -30.5t71.5 -74t63.5 -87.5t80 -74.5t106.5 -30.5q114 0 189 62.5t75 154.5q0 177 -262 272l-176 66q-351 127 -351 370q0 104 89 206t249 141q-45 -39 -72.5 -95.5t-27.5 -119.5
q0 -74 61.5 -134t174.5 -102l180 -66l78 -30q39 24 65.5 75.5t26.5 110.5q0 49 -19 91.5t-46.5 71.5t-69 55t-75.5 41t-77 30l-201 74q-151 55 -229 159.5t-78 231.5q0 164 141.5 264t356.5 100q121 0 226.5 -30t169 -82t63.5 -113q0 -43 -35.5 -73.5t-85.5 -30.5
q-37 0 -66 14.5t-49 38t-38 52t-37.5 57t-42 52t-57.5 38t-79 14.5q-88 0 -152.5 -51t-64.5 -140q0 -84 51.5 -140.5t153.5 -96.5l209 -80q195 -72 282.5 -166t87.5 -221q0 -103 -93 -199.5t-236 -146.5q169 -73 248 -163.5t79 -217.5q0 -84 -38.5 -158.5t-108 -130.5
t-173 -88.5t-227.5 -32.5z" />
    <glyph glyph-name="dieresis" unicode="&#xa8;" horiz-adv-x="940" 
d="M559 1444q0 66 47 113t113 47t113 -47t47 -113t-47 -113t-113 -47t-113 47t-47 113zM61 1444q0 66 47 113t113 47t113 -47t47 -113t-47 -113t-113 -47t-113 47t-47 113z" />
    <glyph glyph-name="copyright" unicode="&#xa9;" horiz-adv-x="1558" 
d="M76 678q0 204 94.5 366t254.5 250t355 88q144 0 273 -52t224 -143t150.5 -223.5t55.5 -285.5q0 -204 -95 -366t-255 -249.5t-353 -87.5q-195 0 -355 87.5t-254.5 249.5t-94.5 366zM197 678q0 -130 45 -242t123 -189t185.5 -121t229.5 -44q253 0 417.5 166.5t164.5 429.5
q0 131 -44 243t-121.5 189t-185 120.5t-231.5 43.5q-122 0 -229.5 -43.5t-185.5 -120.5t-123 -189t-45 -243zM774 401q73 0 132 37t81 111l117 -33q-34 -97 -116.5 -159t-213.5 -62q-165 0 -256.5 103t-91.5 288q0 181 96.5 283t259.5 102q128 0 208 -63.5t108 -167.5
l-115 -37q-18 76 -76 118t-133 42q-94 0 -158.5 -72t-64.5 -205q0 -131 65.5 -208t157.5 -77z" />
    <glyph glyph-name="guillemotleft" unicode="&#xab;" horiz-adv-x="1050" 
d="M913 72h-94l-379 440l379 438h94l-190 -438zM528 72h-92l-381 440l381 438h92l-188 -438z" />
    <glyph glyph-name="logicalnot" unicode="&#xac;" horiz-adv-x="1196" 
d="M905 696h-860v123h993v-633h-133v510z" />
    <glyph glyph-name="uni00AD" unicode="&#xad;" horiz-adv-x="718" 
d="M96 436v166h527v-166h-527z" />
    <glyph glyph-name="registered" unicode="&#xae;" horiz-adv-x="1558" 
d="M76 678q0 204 94.5 366t254.5 250t355 88q144 0 273 -52t224 -143t150.5 -223.5t55.5 -285.5q0 -204 -95 -366t-255 -249.5t-353 -87.5q-195 0 -355 87.5t-254.5 249.5t-94.5 366zM197 678q0 -130 45 -242t123 -189t185.5 -121t229.5 -44q253 0 417.5 166.5t164.5 429.5
q0 131 -44 243t-121.5 189t-185 120.5t-231.5 43.5q-122 0 -229.5 -43.5t-185.5 -120.5t-123 -189t-45 -243zM965 846q0 65 -48.5 90t-138.5 25h-145v-234h153q93 0 136 29t43 90zM633 618v-290h-119v745h225q70 0 120.5 -5t96.5 -19.5t73.5 -39t44 -65t16.5 -96.5
q0 -66 -35.5 -119.5t-104.5 -81.5l170 -319h-135l-151 293q-21 -3 -43 -3h-158z" />
    <glyph glyph-name="overscore" unicode="&#xaf;" horiz-adv-x="802" 
d="M49 1341v113h705v-113h-705z" />
    <glyph glyph-name="degree" unicode="&#xb0;" 
d="M35 1350q0 118 80.5 199t197.5 81t199 -81t82 -199q0 -117 -82 -198t-199 -81t-197.5 81t-80.5 198zM162 1350q0 -71 42 -119.5t109 -48.5q70 0 113 48.5t43 119.5q0 74 -42.5 122t-113.5 48q-68 0 -109.5 -48.5t-41.5 -121.5z" />
    <glyph glyph-name="plusminus" unicode="&#xb1;" horiz-adv-x="1181" 
d="M526 680v332h129v-332h451v-123h-451v-342h-129v342h-450v123h450zM1106 0h-1030v123h1030v-123z" />
    <glyph glyph-name="acute" unicode="&#xb4;" horiz-adv-x="589" 
d="M541 1612l-471 -375h-21l137 375h355z" />
    <glyph glyph-name="mu" unicode="&#xb5;" horiz-adv-x="1056" 
d="M248 -354h-131q18 81 18 295v1063h131v-545q0 -182 67.5 -276.5t192.5 -94.5q124 0 194.5 99t70.5 278v539h131v-1004h-131v160q-83 -185 -265 -185q-184 0 -260 172v-190q0 -218 -18 -311z" />
    <glyph glyph-name="paragraph" unicode="&#xb6;" horiz-adv-x="1038" 
d="M371 -170v1085q-66 6 -124.5 29.5t-106.5 64t-76.5 103t-28.5 139.5q0 170 116 264.5t343 94.5h346v-1780h-123v1663h-221v-1663h-125z" />
    <glyph glyph-name="middot" unicode="&#xb7;" horiz-adv-x="634" 
d="M117 582q0 83 58.5 141.5t141.5 58.5t142 -58.5t59 -141.5t-59 -142t-142 -59t-141.5 59t-58.5 142z" />
    <glyph glyph-name="cedilla" unicode="&#xb8;" horiz-adv-x="468" 
d="M186 -8h62l-109 -180q62 45 133 45q62 0 105 -36.5t43 -96.5q0 -61 -36.5 -111.5t-93 -80.5t-119 -46t-120.5 -16l-2 12q93 16 149 86t56 139q0 36 -17 57t-49 21q-19 0 -59 -16l-49 38z" />
    <glyph glyph-name="guillemotright" unicode="&#xbb;" horiz-adv-x="1050" 
d="M137 72l191 440l-191 438h94l381 -438l-381 -440h-94zM522 72l189 440l-189 438h92l381 -438l-381 -440h-92z" />
    <glyph glyph-name="questiondown" unicode="&#xbf;" horiz-adv-x="1042" 
d="M721 827q0 -83 -59 -141.5t-142 -58.5t-142 58.5t-59 141.5t59 142t142 59t142 -59t59 -142zM993 -270q0 -43 -28.5 -85.5t-84 -79t-149 -59t-211.5 -22.5q-246 0 -383 90t-137 256q0 60 23.5 107.5t62 77.5t87.5 57.5t100.5 47t100.5 46.5t87.5 56.5t62 75.5t23.5 105
q0 71 -17 121l13 8q92 -58 145 -146t53 -185q0 -59 -24 -104.5t-62 -74.5t-84.5 -52.5t-93 -44.5t-84.5 -44.5t-62 -58.5t-24 -80q0 -81 47 -132.5t135 -51.5q53 0 91 30.5t62 73.5t48.5 86.5t66.5 74t101 30.5q58 0 96.5 -32.5t38.5 -90.5z" />
    <glyph glyph-name="Agrave" unicode="&#xc0;" horiz-adv-x="1556" 
d="M885 1688l-471 340h415l76 -340h-20zM670 1364l-240 -645h485zM1188 0l-205 537h-621l-200 -537h-142l615 1612h285l616 -1612h-348z" />
    <glyph glyph-name="Aacute" unicode="&#xc1;" horiz-adv-x="1556" 
d="M1151 2028l-471 -340h-21l76 340h416zM670 1364l-240 -645h485zM1188 0l-205 537h-621l-200 -537h-142l615 1612h285l616 -1612h-348z" />
    <glyph glyph-name="Acircumflex" unicode="&#xc2;" horiz-adv-x="1556" 
d="M782 1831l-346 -143h-20l366 368l367 -368h-21zM670 1364l-240 -645h485zM1188 0l-205 537h-621l-200 -537h-142l615 1612h285l616 -1612h-348z" />
    <glyph glyph-name="Atilde" unicode="&#xc3;" horiz-adv-x="1556" 
d="M1040 2003l93 117l14 -9l-96 -299h-529l-92 -116l-14 8l96 299h528zM670 1364l-240 -645h485zM1188 0l-205 537h-621l-200 -537h-142l615 1612h285l616 -1612h-348z" />
    <glyph glyph-name="Adieresis" unicode="&#xc4;" horiz-adv-x="1556" 
d="M893 1868q0 66 47 113t113 47t112.5 -47t46.5 -113t-46.5 -113t-112.5 -47t-113 47t-47 113zM354 1868q0 66 47 113t113 47t113 -47t47 -113t-47 -113t-113 -47t-113 47t-47 113zM670 1364l-240 -645h485zM1188 0l-205 537h-621l-200 -537h-142l615 1612h285l616 -1612
h-348z" />
    <glyph glyph-name="Aring" unicode="&#xc5;" horiz-adv-x="1556" 
d="M991 1929q0 -84 -61 -142t-148 -58t-148 58t-61 142t61 142.5t148 58.5t148 -58.5t61 -142.5zM893 1929q0 50 -32.5 81.5t-78.5 31.5q-47 0 -77.5 -32.5t-30.5 -80.5t30.5 -80t77.5 -32q52 0 81.5 31.5t29.5 80.5zM670 1364l-240 -645h485zM1188 0l-205 537h-621
l-200 -537h-142l615 1612h285l616 -1612h-348z" />
    <glyph glyph-name="AE" unicode="&#xc6;" horiz-adv-x="2177" 
d="M1006 1407l-494 -770h494v770zM1006 0v455h-611l-291 -455h-131l1033 1612h1095v-117h-760v-604h682v-117h-682v-657h760v-117h-1095z" />
    <glyph glyph-name="Ccedilla" unicode="&#xc7;" horiz-adv-x="1828" 
d="M1178 -317q0 -61 -36.5 -111.5t-93 -80.5t-119 -46t-120.5 -16l-2 12q93 16 149 86t56 139q0 36 -17 57t-49 21q-19 0 -59 -16l-49 39l98 208q-171 11 -311.5 62.5t-235.5 129.5t-159.5 181.5t-94 217.5t-29.5 239q0 133 33.5 253t107.5 227t182 184.5t267.5 123
t354.5 45.5q361 0 612 -135v-454h-29q-71 248 -218.5 365.5t-373.5 117.5q-263 0 -422 -189.5t-159 -537.5t159 -537.5t422 -189.5q462 0 600 483h29v-455q-249 -135 -631 -135h-45l-98 -200q62 45 133 45q62 0 105 -36.5t43 -96.5z" />
    <glyph glyph-name="Egrave" unicode="&#xc8;" horiz-adv-x="1349" 
d="M858 1688l-471 340h416l76 -340h-21zM199 0v1612h1075v-125h-739v-590h661v-129h-661v-643h739v-125h-1075z" />
    <glyph glyph-name="Eacute" unicode="&#xc9;" horiz-adv-x="1349" 
d="M1108 2028l-471 -340h-21l76 340h416zM199 0v1612h1075v-125h-739v-590h661v-129h-661v-643h739v-125h-1075z" />
    <glyph glyph-name="Ecircumflex" unicode="&#xca;" horiz-adv-x="1349" 
d="M756 1831l-346 -143h-21l367 368l366 -368h-20zM199 0v1612h1075v-125h-739v-590h661v-129h-661v-643h739v-125h-1075z" />
    <glyph glyph-name="Edieresis" unicode="&#xcb;" horiz-adv-x="1349" 
d="M866 1868q0 66 47 113t113 47t113 -47t47 -113t-47 -113t-113 -47t-113 47t-47 113zM328 1868q0 66 46.5 113t112.5 47t113 -47t47 -113t-47 -113t-113 -47t-112.5 47t-46.5 113zM199 0v1612h1075v-125h-739v-590h661v-129h-661v-643h739v-125h-1075z" />
    <glyph glyph-name="Igrave" unicode="&#xcc;" horiz-adv-x="733" 
d="M510 1688l-471 340h416l75 -340h-20zM199 0v1612h336v-1612h-336z" />
    <glyph glyph-name="Iacute" unicode="&#xcd;" horiz-adv-x="733" 
d="M694 2028l-471 -340h-20l76 340h415zM199 0v1612h336v-1612h-336z" />
    <glyph glyph-name="Icircumflex" unicode="&#xce;" horiz-adv-x="733" 
d="M367 1831l-347 -143h-20l367 368l366 -368h-20zM199 0v1612h336v-1612h-336z" />
    <glyph glyph-name="Idieresis" unicode="&#xcf;" horiz-adv-x="733" 
d="M477 1868q0 66 47 113t113 47t113 -47t47 -113t-47 -113t-113 -47t-113 47t-47 113zM-61 1868q0 66 46.5 113t112.5 47t113 -47t47 -113t-47 -113t-113 -47t-112.5 47t-46.5 113zM199 0v1612h336v-1612h-336z" />
    <glyph glyph-name="Eth" unicode="&#xd0;" horiz-adv-x="1855" 
d="M780 0h-512v768h-268v129h268v715h512q294 0 512.5 -96.5t337.5 -279.5t119 -431t-119 -430.5t-337.5 -278.5t-512.5 -96zM604 125h168q77 0 140 7t129 26t117 51t96.5 84t75.5 122.5t47.5 169t17.5 220.5q0 123 -17.5 221.5t-47.5 169t-75.5 123t-96.5 84t-117 51
t-129 26.5t-140 7h-168v-590h311v-129h-311v-643z" />
    <glyph glyph-name="Ntilde" unicode="&#xd1;" horiz-adv-x="1712" 
d="M1237 2003l92 117l14 -9l-96 -299h-528l-92 -116l-15 8l97 299h528zM1374 1612h139v-1612h-303l-872 1378v-1378h-139v1612h366l809 -1278v1278z" />
    <glyph glyph-name="Ograve" unicode="&#xd2;" horiz-adv-x="1974" 
d="M1110 1688l-471 340h416l75 -340h-20zM106 805q0 250 114.5 440.5t314 291.5t452.5 101t452.5 -101t314 -291.5t114.5 -440.5t-114.5 -441t-314 -292t-452.5 -101t-452.5 101t-314 292t-114.5 441zM1513 805q0 150 -27.5 273t-75.5 208t-115 143t-144 84.5t-164 26.5
q-109 0 -202 -43.5t-166.5 -130t-115.5 -230.5t-42 -331t42 -331t115.5 -230.5t166.5 -130t202 -43.5q87 0 164 26.5t144 84.5t115 143t75.5 208t27.5 273z" />
    <glyph glyph-name="Oacute" unicode="&#xd3;" horiz-adv-x="1974" 
d="M1335 2028l-471 -340h-20l76 340h415zM106 805q0 250 114.5 440.5t314 291.5t452.5 101t452.5 -101t314 -291.5t114.5 -440.5t-114.5 -441t-314 -292t-452.5 -101t-452.5 101t-314 292t-114.5 441zM1513 805q0 150 -27.5 273t-75.5 208t-115 143t-144 84.5t-164 26.5
q-109 0 -202 -43.5t-166.5 -130t-115.5 -230.5t-42 -331t42 -331t115.5 -230.5t166.5 -130t202 -43.5q87 0 164 26.5t144 84.5t115 143t75.5 208t27.5 273z" />
    <glyph glyph-name="Ocircumflex" unicode="&#xd4;" horiz-adv-x="1974" 
d="M967 1831l-346 -143h-21l367 368l366 -368h-20zM106 805q0 250 114.5 440.5t314 291.5t452.5 101t452.5 -101t314 -291.5t114.5 -440.5t-114.5 -441t-314 -292t-452.5 -101t-452.5 101t-314 292t-114.5 441zM1513 805q0 150 -27.5 273t-75.5 208t-115 143t-144 84.5
t-164 26.5q-109 0 -202 -43.5t-166.5 -130t-115.5 -230.5t-42 -331t42 -331t115.5 -230.5t166.5 -130t202 -43.5q87 0 164 26.5t144 84.5t115 143t75.5 208t27.5 273z" />
    <glyph glyph-name="Otilde" unicode="&#xd5;" horiz-adv-x="1974" 
d="M1225 2003l92 117l14 -9l-96 -299h-528l-93 -116l-14 8l96 299h529zM106 805q0 250 114.5 440.5t314 291.5t452.5 101t452.5 -101t314 -291.5t114.5 -440.5t-114.5 -441t-314 -292t-452.5 -101t-452.5 101t-314 292t-114.5 441zM1513 805q0 150 -27.5 273t-75.5 208
t-115 143t-144 84.5t-164 26.5q-109 0 -202 -43.5t-166.5 -130t-115.5 -230.5t-42 -331t42 -331t115.5 -230.5t166.5 -130t202 -43.5q87 0 164 26.5t144 84.5t115 143t75.5 208t27.5 273z" />
    <glyph glyph-name="Odieresis" unicode="&#xd6;" horiz-adv-x="1974" 
d="M1077 1868q0 66 47 113t113 47t113 -47t47 -113t-47 -113t-113 -47t-113 47t-47 113zM539 1868q0 66 46.5 113t112.5 47t113 -47t47 -113t-47 -113t-113 -47t-112.5 47t-46.5 113zM106 805q0 250 114.5 440.5t314 291.5t452.5 101t452.5 -101t314 -291.5t114.5 -440.5
t-114.5 -441t-314 -292t-452.5 -101t-452.5 101t-314 292t-114.5 441zM1513 805q0 150 -27.5 273t-75.5 208t-115 143t-144 84.5t-164 26.5q-109 0 -202 -43.5t-166.5 -130t-115.5 -230.5t-42 -331t42 -331t115.5 -230.5t166.5 -130t202 -43.5q87 0 164 26.5t144 84.5
t115 143t75.5 208t27.5 273z" />
    <glyph glyph-name="multiply" unicode="&#xd7;" horiz-adv-x="1032" 
d="M956 164l-92 -92l-350 348l-346 -346l-92 92l346 348l-346 346l92 92l346 -346l348 346l92 -92l-346 -346z" />
    <glyph glyph-name="Oslash" unicode="&#xd8;" horiz-adv-x="1974" 
d="M461 805q0 -250 69 -410l852 936q-141 209 -395 209q-109 0 -202 -43.5t-166.5 -130t-115.5 -230.5t-42 -331zM987 70q87 0 164 26.5t144 84.5t115 143t75.5 208t27.5 273q0 270 -83 444l-857 -940q70 -120 177.5 -179.5t236.5 -59.5zM987 -29q-333 0 -567 172l-162 -178
l-63 62l157 174q-246 229 -246 604q0 250 114.5 440.5t314 291.5t452.5 101q311 0 537 -151l196 217l68 -62l-193 -210q132 -112 202.5 -271t70.5 -356q0 -250 -114.5 -441t-314 -292t-452.5 -101z" />
    <glyph glyph-name="Ugrave" unicode="&#xd9;" horiz-adv-x="1681" 
d="M1085 1688l-471 340h416l76 -340h-21zM178 1612h336v-1041q0 -132 29 -222.5t87.5 -141.5t135 -72.5t182.5 -21.5q238 0 349.5 125t111.5 374v1000h147v-1014q0 -322 -167.5 -474.5t-526.5 -152.5q-684 0 -684 598v1043z" />
    <glyph glyph-name="Uacute" unicode="&#xda;" horiz-adv-x="1681" 
d="M1331 2028l-471 -340h-20l75 340h416zM178 1612h336v-1041q0 -132 29 -222.5t87.5 -141.5t135 -72.5t182.5 -21.5q238 0 349.5 125t111.5 374v1000h147v-1014q0 -322 -167.5 -474.5t-526.5 -152.5q-684 0 -684 598v1043z" />
    <glyph glyph-name="Ucircumflex" unicode="&#xdb;" horiz-adv-x="1681" 
d="M967 1831l-346 -143h-21l367 368l366 -368h-20zM178 1612h336v-1041q0 -132 29 -222.5t87.5 -141.5t135 -72.5t182.5 -21.5q238 0 349.5 125t111.5 374v1000h147v-1014q0 -322 -167.5 -474.5t-526.5 -152.5q-684 0 -684 598v1043z" />
    <glyph glyph-name="Udieresis" unicode="&#xdc;" horiz-adv-x="1681" 
d="M1032 1868q0 66 47 113t113 47t113 -47t47 -113t-47 -113t-113 -47t-113 47t-47 113zM494 1868q0 66 46.5 113t112.5 47t113 -47t47 -113t-47 -113t-113 -47t-112.5 47t-46.5 113zM178 1612h336v-1041q0 -132 29 -222.5t87.5 -141.5t135 -72.5t182.5 -21.5
q238 0 349.5 125t111.5 374v1000h147v-1014q0 -322 -167.5 -474.5t-526.5 -152.5q-684 0 -684 598v1043z" />
    <glyph glyph-name="Yacute" unicode="&#xdd;" horiz-adv-x="1470" 
d="M1206 2028l-471 -340h-20l76 340h415zM537 0v639l-523 973h377l428 -813l492 813h145l-584 -975v-637h-335z" />
    <glyph glyph-name="Thorn" unicode="&#xde;" horiz-adv-x="1486" 
d="M535 1145v-672h176q213 0 302 82t89 254t-89 254t-302 82h-176zM719 356h-184v-356h-336v1612h336v-350h184q735 0 735 -453t-735 -453z" />
    <glyph glyph-name="germandbls" unicode="&#xdf;" horiz-adv-x="1470" 
d="M963 -29q-60 0 -122.5 13.5t-117.5 38.5t-90 67t-35 94t34 83.5t81 31.5q49 0 80.5 -26.5t47.5 -64t30.5 -75t40 -64t65.5 -26.5q69 0 123.5 40t54.5 112q0 30 -15 61t-34.5 54.5t-55 52.5t-58 45t-62.5 43l-82 57q-217 150 -217 334q0 41 9 75.5t31.5 69.5t36.5 52.5
t48 56.5q39 46 61.5 78.5t42 88t19.5 117.5q0 82 -47.5 130.5t-129.5 48.5q-44 0 -82 -19t-73.5 -64t-56.5 -134.5t-21 -215.5v-1126h-311v1085q0 256 145 402.5t402 146.5q121 0 225.5 -26.5t171.5 -79t67 -121.5q0 -36 -11 -67t-24 -51.5t-41 -43t-44 -33t-50 -30.5
l-36 -20t-36.5 -21t-30.5 -19.5t-29.5 -24t-20 -25.5t-15.5 -31.5t-4 -36.5q0 -108 222 -259l69 -49q166 -119 228.5 -201t62.5 -192q0 -56 -26.5 -112t-77.5 -106.5t-140.5 -82t-201.5 -31.5z" />
    <glyph glyph-name="agrave" unicode="&#xe0;" horiz-adv-x="1124" 
d="M655 1237l-471 375h355l137 -375h-21zM524 104q62 0 109 50q-2 6 -2 32l4 314q-119 0 -193 -56t-82 -139q-11 -95 41.5 -148t122.5 -53zM872 -25q-91 0 -159.5 43t-79.5 136q-37 -90 -103 -136.5t-172 -46.5q-136 0 -222.5 80t-86.5 199q0 80 48 139.5t133 94.5t185 53
t220 22l2 170q0 147 -35 204.5t-108 57.5q-115 0 -115 -80q0 -23 11 -55.5t11 -60.5q0 -52 -34.5 -85.5t-100.5 -33.5q-56 0 -92.5 37t-36.5 98q0 99 113 172.5t293 73.5q76 0 134 -11t110.5 -41.5t85.5 -80.5t52 -131.5t17 -192.5l-6 -340q-1 -95 15 -129.5t59 -34.5
q58 0 108 86l21 -10q-77 -197 -267 -197z" />
    <glyph glyph-name="aacute" unicode="&#xe1;" horiz-adv-x="1124" 
d="M1024 1612l-471 -375h-21l138 375h354zM524 104q62 0 109 50q-2 6 -2 32l4 314q-119 0 -193 -56t-82 -139q-11 -95 41.5 -148t122.5 -53zM872 -25q-91 0 -159.5 43t-79.5 136q-37 -90 -103 -136.5t-172 -46.5q-136 0 -222.5 80t-86.5 199q0 80 48 139.5t133 94.5t185 53
t220 22l2 170q0 147 -35 204.5t-108 57.5q-115 0 -115 -80q0 -23 11 -55.5t11 -60.5q0 -52 -34.5 -85.5t-100.5 -33.5q-56 0 -92.5 37t-36.5 98q0 99 113 172.5t293 73.5q76 0 134 -11t110.5 -41.5t85.5 -80.5t52 -131.5t17 -192.5l-6 -340q-1 -95 15 -129.5t59 -34.5
q58 0 108 86l21 -10q-77 -197 -267 -197z" />
    <glyph glyph-name="acircumflex" unicode="&#xe2;" horiz-adv-x="1124" 
d="M573 1401l-346 -164h-20l366 408l367 -408h-20zM524 104q62 0 109 50q-2 6 -2 32l4 314q-119 0 -193 -56t-82 -139q-11 -95 41.5 -148t122.5 -53zM872 -25q-91 0 -159.5 43t-79.5 136q-37 -90 -103 -136.5t-172 -46.5q-136 0 -222.5 80t-86.5 199q0 80 48 139.5t133 94.5
t185 53t220 22l2 170q0 147 -35 204.5t-108 57.5q-115 0 -115 -80q0 -23 11 -55.5t11 -60.5q0 -52 -34.5 -85.5t-100.5 -33.5q-56 0 -92.5 37t-36.5 98q0 99 113 172.5t293 73.5q76 0 134 -11t110.5 -41.5t85.5 -80.5t52 -131.5t17 -192.5l-6 -340q-1 -95 15 -129.5
t59 -34.5q58 0 108 86l21 -10q-77 -197 -267 -197z" />
    <glyph glyph-name="atilde" unicode="&#xe3;" horiz-adv-x="1124" 
d="M852 1552l92 117l14 -8l-96 -299h-528l-92 -117l-15 8l97 299h528zM524 104q62 0 109 50q-2 6 -2 32l4 314q-119 0 -193 -56t-82 -139q-11 -95 41.5 -148t122.5 -53zM872 -25q-91 0 -159.5 43t-79.5 136q-37 -90 -103 -136.5t-172 -46.5q-136 0 -222.5 80t-86.5 199
q0 80 48 139.5t133 94.5t185 53t220 22l2 170q0 147 -35 204.5t-108 57.5q-115 0 -115 -80q0 -23 11 -55.5t11 -60.5q0 -52 -34.5 -85.5t-100.5 -33.5q-56 0 -92.5 37t-36.5 98q0 99 113 172.5t293 73.5q76 0 134 -11t110.5 -41.5t85.5 -80.5t52 -131.5t17 -192.5l-6 -340
q-1 -95 15 -129.5t59 -34.5q58 0 108 86l21 -10q-77 -197 -267 -197z" />
    <glyph glyph-name="adieresis" unicode="&#xe4;" horiz-adv-x="1124" 
d="M682 1444q0 66 47 113t113 47t112.5 -47t46.5 -113t-46.5 -113t-112.5 -47t-113 47t-47 113zM184 1444q0 66 47 113t113 47t113 -47t47 -113t-47 -113t-113 -47t-113 47t-47 113zM524 104q62 0 109 50q-2 6 -2 32l4 314q-119 0 -193 -56t-82 -139q-11 -95 41.5 -148
t122.5 -53zM872 -25q-91 0 -159.5 43t-79.5 136q-37 -90 -103 -136.5t-172 -46.5q-136 0 -222.5 80t-86.5 199q0 80 48 139.5t133 94.5t185 53t220 22l2 170q0 147 -35 204.5t-108 57.5q-115 0 -115 -80q0 -23 11 -55.5t11 -60.5q0 -52 -34.5 -85.5t-100.5 -33.5
q-56 0 -92.5 37t-36.5 98q0 99 113 172.5t293 73.5q76 0 134 -11t110.5 -41.5t85.5 -80.5t52 -131.5t17 -192.5l-6 -340q-1 -95 15 -129.5t59 -34.5q58 0 108 86l21 -10q-77 -197 -267 -197z" />
    <glyph glyph-name="aring" unicode="&#xe5;" horiz-adv-x="1124" 
d="M782 1481q0 -84 -61 -142.5t-148 -58.5t-147.5 58.5t-60.5 142.5t60.5 142t147.5 58t148 -58t61 -142zM684 1481q0 50 -32.5 81t-78.5 31q-47 0 -77.5 -32t-30.5 -80t30.5 -80.5t77.5 -32.5q52 0 81.5 32t29.5 81zM524 104q62 0 109 50q-2 6 -2 32l4 314q-119 0 -193 -56
t-82 -139q-11 -95 41.5 -148t122.5 -53zM872 -25q-91 0 -159.5 43t-79.5 136q-37 -90 -103 -136.5t-172 -46.5q-136 0 -222.5 80t-86.5 199q0 80 48 139.5t133 94.5t185 53t220 22l2 170q0 147 -35 204.5t-108 57.5q-115 0 -115 -80q0 -23 11 -55.5t11 -60.5
q0 -52 -34.5 -85.5t-100.5 -33.5q-56 0 -92.5 37t-36.5 98q0 99 113 172.5t293 73.5q76 0 134 -11t110.5 -41.5t85.5 -80.5t52 -131.5t17 -192.5l-6 -340q-1 -95 15 -129.5t59 -34.5q58 0 108 86l21 -10q-77 -197 -267 -197z" />
    <glyph glyph-name="ae" unicode="&#xe6;" horiz-adv-x="1685" 
d="M1606 371l34 -17q-66 -198 -179.5 -290.5t-293.5 -92.5q-237 0 -385.5 146.5t-148.5 378.5v4q-117 0 -191 -56.5t-82 -138.5q-11 -95 40 -148t120 -53q105 0 182 113q-65 -246 -342 -246q-137 0 -224 80t-87 199q0 80 48 139.5t133 94.5t185 53t220 22l2 170
q0 147 -35 204.5t-108 57.5q-115 0 -115 -80q0 -23 11 -55.5t11 -60.5q0 -52 -34.5 -85.5t-100.5 -33.5q-56 0 -92.5 37t-36.5 98q0 99 113 172.5t293 73.5q104 0 179 -23t126 -80q136 95 326 95q193 0 316 -114.5t140 -320.5h-682q-4 -87 16 -171t61 -154t111 -113t158 -43
q210 0 312 238zM1151 979q-89 0 -141.5 -80t-57.5 -201h355q5 75 -7.5 136.5t-50.5 103t-98 41.5z" />
    <glyph glyph-name="ccedilla" unicode="&#xe7;" horiz-adv-x="1130" 
d="M745 -276q0 -61 -36.5 -111.5t-93 -80.5t-118.5 -46t-120 -16l-2 12q93 16 149 86t56 139q0 36 -17 57t-49 21q-19 0 -59 -16l-49 38l100 175q-189 34 -304.5 172.5t-115.5 341.5q0 115 35 209.5t92.5 157t134.5 105.5t157.5 62t164.5 19q158 0 265 -54t107 -145
q0 -59 -39 -95t-96 -36q-58 0 -94 26.5t-52.5 64t-31 75t-43 64t-76.5 26.5q-62 0 -107 -59.5t-66 -148t-21 -189.5q0 -117 35.5 -216t112 -164t181.5 -65q98 0 176 62t113 190l35 -8q-38 -209 -149.5 -307.5t-307.5 -98.5q-33 0 -49 2l-98 -161q62 45 133 45
q62 0 104.5 -36.5t42.5 -96.5z" />
    <glyph glyph-name="egrave" unicode="&#xe8;" horiz-adv-x="1177" 
d="M739 1237l-471 375h355l137 -375h-21zM616 979q-89 0 -141 -80t-57 -201h354q5 75 -7.5 136.5t-50.5 103t-98 41.5zM1071 395l35 -10q-46 -218 -161.5 -316t-311.5 -98q-239 0 -393 147t-154 378q0 254 155 403.5t398 149.5q193 0 316.5 -114.5t140.5 -320.5h-682
q-4 -87 16 -171t61 -154t111 -113t158 -43q104 0 183 57.5t128 204.5z" />
    <glyph glyph-name="eacute" unicode="&#xe9;" horiz-adv-x="1177" 
d="M985 1612l-471 -375h-20l137 375h354zM616 979q-89 0 -141 -80t-57 -201h354q5 75 -7.5 136.5t-50.5 103t-98 41.5zM1071 395l35 -10q-46 -218 -161.5 -316t-311.5 -98q-239 0 -393 147t-154 378q0 254 155 403.5t398 149.5q193 0 316.5 -114.5t140.5 -320.5h-682
q-4 -87 16 -171t61 -154t111 -113t158 -43q104 0 183 57.5t128 204.5z" />
    <glyph glyph-name="ecircumflex" unicode="&#xea;" horiz-adv-x="1177" 
d="M627 1401l-346 -164h-21l367 408l366 -408h-20zM616 979q-89 0 -141 -80t-57 -201h354q5 75 -7.5 136.5t-50.5 103t-98 41.5zM1071 395l35 -10q-46 -218 -161.5 -316t-311.5 -98q-239 0 -393 147t-154 378q0 254 155 403.5t398 149.5q193 0 316.5 -114.5t140.5 -320.5
h-682q-4 -87 16 -171t61 -154t111 -113t158 -43q104 0 183 57.5t128 204.5z" />
    <glyph glyph-name="edieresis" unicode="&#xeb;" horiz-adv-x="1177" 
d="M709 1444q0 66 46.5 113t112.5 47t113 -47t47 -113t-47 -113t-113 -47t-112.5 47t-46.5 113zM211 1444q0 66 47 113t113 47t112.5 -47t46.5 -113t-46.5 -113t-112.5 -47t-113 47t-47 113zM616 979q-89 0 -141 -80t-57 -201h354q5 75 -7.5 136.5t-50.5 103t-98 41.5z
M1071 395l35 -10q-46 -218 -161.5 -316t-311.5 -98q-239 0 -393 147t-154 378q0 254 155 403.5t398 149.5q193 0 316.5 -114.5t140.5 -320.5h-682q-4 -87 16 -171t61 -154t111 -113t158 -43q104 0 183 57.5t128 204.5z" />
    <glyph glyph-name="igrave" unicode="&#xec;" 
d="M498 1237l-471 375h354l137 -375h-20zM471 1026v-1026h-313v1026h313z" />
    <glyph glyph-name="iacute" unicode="&#xed;" 
d="M662 1612l-472 -375h-20l137 375h355zM471 1026v-1026h-313v1026h313z" />
    <glyph glyph-name="icircumflex" unicode="&#xee;" 
d="M315 1401l-346 -164h-20l366 408l367 -408h-20zM471 1026v-1026h-313v1026h313z" />
    <glyph glyph-name="idieresis" unicode="&#xef;" 
d="M403 1444q0 66 47 113t113 47t113 -47t47 -113t-47 -113t-113 -47t-113 47t-47 113zM-94 1444q0 66 47 113t113 47t112.5 -47t46.5 -113t-46.5 -113t-112.5 -47t-113 47t-47 113zM471 1026v-1026h-313v1026h313z" />
    <glyph glyph-name="eth" unicode="&#xf0;" horiz-adv-x="1388" 
d="M1282 614q0 -293 -156.5 -468t-431.5 -175q-279 0 -448.5 151t-169.5 396q0 110 28.5 201.5t76 153t111.5 104t133 61.5t142 19q103 0 195.5 -53.5t144.5 -153.5q-90 90 -225 90q-262 0 -262 -428q0 -217 68.5 -340t201.5 -123q71 0 123 40t80 108.5t40.5 146t12.5 166.5
q0 591 -387 930l-244 -133l-45 79l211 117q-119 86 -270 152l12 33q183 -51 355 -132l268 148l45 -82l-213 -117q285 -158 444.5 -383.5t159.5 -507.5z" />
    <glyph glyph-name="ntilde" unicode="&#xf1;" horiz-adv-x="1271" 
d="M956 1552l93 117l14 -8l-96 -299h-529l-92 -117l-14 8l96 299h528zM668 879q-138 0 -197 -121q35 153 128 222t222 69q324 0 324 -396v-653h-314v633q0 132 -45 189t-118 57zM471 1026v-1026h-313v1026h313z" />
    <glyph glyph-name="ograve" unicode="&#xf2;" horiz-adv-x="1294" 
d="M811 1237l-471 375h354l137 -375h-20zM1208 510q0 -113 -39.5 -212t-111 -171.5t-177.5 -114t-233 -41.5t-233 41.5t-177.5 114t-111 171.5t-39.5 212t39.5 212t111 171.5t177.5 114t233 41.5t233 -41.5t177.5 -114t111 -171.5t39.5 -212zM881 510q0 68 -5.5 128t-21 124
t-40.5 109t-68 74.5t-99 29.5t-99 -29.5t-67.5 -74.5t-40 -109t-21 -124t-5.5 -128t5.5 -128t21 -124t40 -109t67.5 -74.5t99 -29.5t99 29.5t68 74.5t40.5 109t21 124t5.5 128z" />
    <glyph glyph-name="oacute" unicode="&#xf3;" horiz-adv-x="1294" 
d="M1016 1612l-471 -375h-21l138 375h354zM1208 510q0 -113 -39.5 -212t-111 -171.5t-177.5 -114t-233 -41.5t-233 41.5t-177.5 114t-111 171.5t-39.5 212t39.5 212t111 171.5t177.5 114t233 41.5t233 -41.5t177.5 -114t111 -171.5t39.5 -212zM881 510q0 68 -5.5 128
t-21 124t-40.5 109t-68 74.5t-99 29.5t-99 -29.5t-67.5 -74.5t-40 -109t-21 -124t-5.5 -128t5.5 -128t21 -124t40 -109t67.5 -74.5t99 -29.5t99 29.5t68 74.5t40.5 109t21 124t5.5 128z" />
    <glyph glyph-name="ocircumflex" unicode="&#xf4;" horiz-adv-x="1294" 
d="M647 1401l-346 -164h-20l366 408l367 -408h-21zM1208 510q0 -113 -39.5 -212t-111 -171.5t-177.5 -114t-233 -41.5t-233 41.5t-177.5 114t-111 171.5t-39.5 212t39.5 212t111 171.5t177.5 114t233 41.5t233 -41.5t177.5 -114t111 -171.5t39.5 -212zM881 510
q0 68 -5.5 128t-21 124t-40.5 109t-68 74.5t-99 29.5t-99 -29.5t-67.5 -74.5t-40 -109t-21 -124t-5.5 -128t5.5 -128t21 -124t40 -109t67.5 -74.5t99 -29.5t99 29.5t68 74.5t40.5 109t21 124t5.5 128z" />
    <glyph glyph-name="otilde" unicode="&#xf5;" horiz-adv-x="1294" 
d="M905 1552l92 117l15 -8l-97 -299h-528l-92 -117l-14 8l96 299h528zM1208 510q0 -113 -39.5 -212t-111 -171.5t-177.5 -114t-233 -41.5t-233 41.5t-177.5 114t-111 171.5t-39.5 212t39.5 212t111 171.5t177.5 114t233 41.5t233 -41.5t177.5 -114t111 -171.5t39.5 -212z
M881 510q0 68 -5.5 128t-21 124t-40.5 109t-68 74.5t-99 29.5t-99 -29.5t-67.5 -74.5t-40 -109t-21 -124t-5.5 -128t5.5 -128t21 -124t40 -109t67.5 -74.5t99 -29.5t99 29.5t68 74.5t40.5 109t21 124t5.5 128z" />
    <glyph glyph-name="odieresis" unicode="&#xf6;" horiz-adv-x="1294" 
d="M735 1444q0 66 47 113t113 47t113 -47t47 -113t-47 -113t-113 -47t-113 47t-47 113zM238 1444q0 66 46.5 113t112.5 47t113 -47t47 -113t-47 -113t-113 -47t-112.5 47t-46.5 113zM1208 510q0 -113 -39.5 -212t-111 -171.5t-177.5 -114t-233 -41.5t-233 41.5t-177.5 114
t-111 171.5t-39.5 212t39.5 212t111 171.5t177.5 114t233 41.5t233 -41.5t177.5 -114t111 -171.5t39.5 -212zM881 510q0 68 -5.5 128t-21 124t-40.5 109t-68 74.5t-99 29.5t-99 -29.5t-67.5 -74.5t-40 -109t-21 -124t-5.5 -128t5.5 -128t21 -124t40 -109t67.5 -74.5
t99 -29.5t99 29.5t68 74.5t40.5 109t21 124t5.5 128z" />
    <glyph glyph-name="divide" unicode="&#xf7;" horiz-adv-x="1081" 
d="M455 723v188h178v-188h-178zM1024 451h-967v122h967v-122zM455 117v188h178v-188h-178z" />
    <glyph glyph-name="oslash" unicode="&#xf8;" horiz-adv-x="1294" 
d="M408 510q0 -92 12 -184l424 450q-54 199 -203 199q-56 0 -99 -29.5t-67.5 -74.5t-40 -109t-21 -124t-5.5 -128zM641 45q56 0 99 29.5t67.5 74.5t40 109t21 124t5.5 128q0 96 -12 188l-426 -452q54 -201 205 -201zM641 -29q-216 0 -358 111l-148 -156l-47 45l145 154
q-153 150 -153 385q0 113 39.5 212t111 171.5t177.5 114t233 41.5q209 0 356 -109l125 133l49 -45l-122 -131q153 -153 153 -387q0 -113 -39.5 -212t-111 -171.5t-177.5 -114t-233 -41.5z" />
    <glyph glyph-name="ugrave" unicode="&#xf9;" horiz-adv-x="1271" 
d="M778 1237l-471 375h355l137 -375h-21zM801 238q-85 -267 -350 -267q-76 0 -134.5 24t-93.5 62t-57.5 91.5t-30.5 106t-8 112.5v659h313v-713q0 -207 150 -207q81 0 128.5 32.5t82.5 99.5zM801 0v1026h313v-1026h-313z" />
    <glyph glyph-name="uacute" unicode="&#xfa;" horiz-adv-x="1271" 
d="M1026 1612l-471 -375h-20l137 375h354zM801 238q-85 -267 -350 -267q-76 0 -134.5 24t-93.5 62t-57.5 91.5t-30.5 106t-8 112.5v659h313v-713q0 -207 150 -207q81 0 128.5 32.5t82.5 99.5zM801 0v1026h313v-1026h-313z" />
    <glyph glyph-name="ucircumflex" unicode="&#xfb;" horiz-adv-x="1271" 
d="M635 1401l-346 -164h-21l367 408l366 -408h-20zM801 238q-85 -267 -350 -267q-76 0 -134.5 24t-93.5 62t-57.5 91.5t-30.5 106t-8 112.5v659h313v-713q0 -207 150 -207q81 0 128.5 32.5t82.5 99.5zM801 0v1026h313v-1026h-313z" />
    <glyph glyph-name="udieresis" unicode="&#xfc;" horiz-adv-x="1271" 
d="M725 1444q0 66 47 113t113 47t112.5 -47t46.5 -113t-46.5 -113t-112.5 -47t-113 47t-47 113zM227 1444q0 66 47 113t113 47t113 -47t47 -113t-47 -113t-113 -47t-113 47t-47 113zM801 238q-85 -267 -350 -267q-76 0 -134.5 24t-93.5 62t-57.5 91.5t-30.5 106t-8 112.5
v659h313v-713q0 -207 150 -207q81 0 128.5 32.5t82.5 99.5zM801 0v1026h313v-1026h-313z" />
    <glyph glyph-name="yacute" unicode="&#xfd;" horiz-adv-x="1163" 
d="M1053 1612l-471 -375h-21l137 375h355zM14 1026h357l317 -707l322 707h139l-715 -1524h-139l223 461z" />
    <glyph glyph-name="thorn" unicode="&#xfe;" horiz-adv-x="1359" 
d="M471 -496h-313v2108h313v-2108zM1274 510q0 -228 -137 -383.5t-344 -155.5q-124 0 -199.5 52.5t-122.5 156.5q82 -76 184 -76q127 0 209 114.5t82 291.5t-82 291t-209 114q-104 0 -184 -75q46 103 124 156t202 53q210 0 343.5 -150t133.5 -389z" />
    <glyph glyph-name="ydieresis" unicode="&#xff;" horiz-adv-x="1163" 
d="M772 1444q0 66 47 113t113 47t113 -47t47 -113t-47 -113t-113 -47t-113 47t-47 113zM274 1444q0 66 47 113t113 47t113 -47t47 -113t-47 -113t-113 -47t-113 47t-47 113zM14 1026h357l317 -707l322 707h139l-715 -1524h-139l223 461z" />
    <glyph glyph-name="Amacron" unicode="&#x100;" horiz-adv-x="1556" 
d="M430 1812v113h705v-113h-705zM670 1364l-240 -645h485zM1188 0l-205 537h-621l-200 -537h-142l615 1612h285l616 -1612h-348z" />
    <glyph glyph-name="amacron" unicode="&#x101;" horiz-adv-x="1124" 
d="M221 1341v113h705v-113h-705zM524 104q62 0 109 50q-2 6 -2 32l4 314q-119 0 -193 -56t-82 -139q-11 -95 41.5 -148t122.5 -53zM872 -25q-91 0 -159.5 43t-79.5 136q-37 -90 -103 -136.5t-172 -46.5q-136 0 -222.5 80t-86.5 199q0 80 48 139.5t133 94.5t185 53t220 22
l2 170q0 147 -35 204.5t-108 57.5q-115 0 -115 -80q0 -23 11 -55.5t11 -60.5q0 -52 -34.5 -85.5t-100.5 -33.5q-56 0 -92.5 37t-36.5 98q0 99 113 172.5t293 73.5q76 0 134 -11t110.5 -41.5t85.5 -80.5t52 -131.5t17 -192.5l-6 -340q-1 -95 15 -129.5t59 -34.5q58 0 108 86
l21 -10q-77 -197 -267 -197z" />
    <glyph glyph-name="Abreve" unicode="&#x102;" horiz-adv-x="1556" 
d="M784 1794q102 0 166 58.5t70 175.5h100q-3 -82 -30.5 -144t-64.5 -96t-86 -55t-85.5 -27t-71.5 -6t-71.5 6t-85.5 27t-86 55t-64.5 96t-30.5 144h103q6 -117 70 -175.5t167 -58.5zM670 1364l-240 -645h485zM1188 0l-205 537h-621l-200 -537h-142l615 1612h285l616 -1612
h-348z" />
    <glyph glyph-name="abreve" unicode="&#x103;" horiz-adv-x="1124" 
d="M575 1317q102 0 166 58t70 175h100q-3 -82 -30.5 -144t-64.5 -95.5t-86 -54.5t-85.5 -27t-71.5 -6t-71.5 6t-85 27t-85.5 54.5t-64.5 95.5t-30.5 144h102q6 -117 70 -175t167 -58zM524 104q62 0 109 50q-2 6 -2 32l4 314q-119 0 -193 -56t-82 -139q-11 -95 41.5 -148
t122.5 -53zM872 -25q-91 0 -159.5 43t-79.5 136q-37 -90 -103 -136.5t-172 -46.5q-136 0 -222.5 80t-86.5 199q0 80 48 139.5t133 94.5t185 53t220 22l2 170q0 147 -35 204.5t-108 57.5q-115 0 -115 -80q0 -23 11 -55.5t11 -60.5q0 -52 -34.5 -85.5t-100.5 -33.5
q-56 0 -92.5 37t-36.5 98q0 99 113 172.5t293 73.5q76 0 134 -11t110.5 -41.5t85.5 -80.5t52 -131.5t17 -192.5l-6 -340q-1 -95 15 -129.5t59 -34.5q58 0 108 86l21 -10q-77 -197 -267 -197z" />
    <glyph glyph-name="Aogonek" unicode="&#x104;" horiz-adv-x="1556" 
d="M670 1364l-240 -645h485zM1409 0h-221l-205 537h-621l-200 -537h-142l615 1612h285l616 -1612h-106q-57 -43 -99.5 -121.5t-42.5 -150.5q0 -68 41 -115t107 -47q32 0 67 12l6 -16q-93 -60 -188 -60q-86 0 -147.5 43t-61.5 129q0 171 297 326z" />
    <glyph glyph-name="aogonek" unicode="&#x105;" horiz-adv-x="1124" 
d="M811 -498q-86 0 -147.5 43t-61.5 129q0 157 252 301q-87 5 -148.5 48t-72.5 131q-37 -90 -103 -136.5t-172 -46.5q-136 0 -222.5 80t-86.5 199q0 80 48 139.5t133 94.5t185 53t220 22l2 170q0 147 -35 204.5t-108 57.5q-115 0 -115 -80q0 -23 11 -55.5t11 -60.5
q0 -52 -34.5 -85.5t-100.5 -33.5q-56 0 -92.5 37t-36.5 98q0 99 113 172.5t293 73.5q76 0 134 -11t110.5 -41.5t85.5 -80.5t52 -131.5t17 -192.5l-6 -340q-1 -95 15 -129.5t59 -34.5q58 0 108 86l21 -10q-77 -188 -248 -197q-47 -47 -80 -115.5t-33 -131.5q0 -68 41 -115
t107 -47q32 0 67 12l6 -16q-93 -60 -188 -60zM524 104q62 0 109 50q-2 6 -2 32l4 314q-119 0 -193 -56t-82 -139q-11 -95 41.5 -148t122.5 -53z" />
    <glyph glyph-name="Cacute" unicode="&#x106;" horiz-adv-x="1828" 
d="M1339 2028l-471 -340h-20l76 340h415zM106 805q0 133 33.5 253t107.5 227t182 184.5t267.5 123t354.5 45.5q361 0 612 -135v-454h-29q-71 248 -218.5 365.5t-373.5 117.5q-263 0 -422 -189.5t-159 -537.5t159 -537.5t422 -189.5q462 0 600 483h29v-455
q-249 -135 -631 -135q-193 0 -351 45.5t-265 123.5t-180 185t-105.5 227t-32.5 253z" />
    <glyph glyph-name="cacute" unicode="&#x107;" horiz-adv-x="1130" 
d="M1010 1612l-471 -375h-21l137 375h355zM416 578q0 -117 35.5 -216t112 -164t181.5 -65q98 0 176 62t113 190l35 -8q-38 -209 -149.5 -307.5t-307.5 -98.5q-228 0 -377 147t-149 378q0 115 35 209.5t92.5 157t134.5 105.5t157.5 62t164.5 19q158 0 265 -54t107 -145
q0 -59 -39 -95t-96 -36q-58 0 -94 26.5t-52.5 64t-31 75t-43 64t-76.5 26.5q-62 0 -107 -59.5t-66 -148t-21 -189.5z" />
    <glyph glyph-name="Ccircumflex" unicode="&#x108;" horiz-adv-x="1828" 
d="M991 1831l-346 -143h-20l366 368l367 -368h-21zM106 805q0 133 33.5 253t107.5 227t182 184.5t267.5 123t354.5 45.5q361 0 612 -135v-454h-29q-71 248 -218.5 365.5t-373.5 117.5q-263 0 -422 -189.5t-159 -537.5t159 -537.5t422 -189.5q462 0 600 483h29v-455
q-249 -135 -631 -135q-193 0 -351 45.5t-265 123.5t-180 185t-105.5 227t-32.5 253z" />
    <glyph glyph-name="ccircumflex" unicode="&#x109;" horiz-adv-x="1130" 
d="M623 1401l-347 -164h-20l367 408l366 -408h-20zM416 578q0 -117 35.5 -216t112 -164t181.5 -65q98 0 176 62t113 190l35 -8q-38 -209 -149.5 -307.5t-307.5 -98.5q-228 0 -377 147t-149 378q0 115 35 209.5t92.5 157t134.5 105.5t157.5 62t164.5 19q158 0 265 -54
t107 -145q0 -59 -39 -95t-96 -36q-58 0 -94 26.5t-52.5 64t-31 75t-43 64t-76.5 26.5q-62 0 -107 -59.5t-66 -148t-21 -189.5z" />
    <glyph glyph-name="Cdotaccent" unicode="&#x10a;" horiz-adv-x="1828" 
d="M813 1868q0 66 47 113t113 47t113 -47t47 -113t-47 -113t-113 -47t-113 47t-47 113zM106 805q0 133 33.5 253t107.5 227t182 184.5t267.5 123t354.5 45.5q361 0 612 -135v-454h-29q-71 248 -218.5 365.5t-373.5 117.5q-263 0 -422 -189.5t-159 -537.5t159 -537.5
t422 -189.5q462 0 600 483h29v-455q-249 -135 -631 -135q-193 0 -351 45.5t-265 123.5t-180 185t-105.5 227t-32.5 253z" />
    <glyph glyph-name="cdotaccent" unicode="&#x10b;" horiz-adv-x="1130" 
d="M453 1444q0 66 46.5 113t112.5 47t113 -47t47 -113t-47 -113t-113 -47t-112.5 47t-46.5 113zM416 578q0 -117 35.5 -216t112 -164t181.5 -65q98 0 176 62t113 190l35 -8q-38 -209 -149.5 -307.5t-307.5 -98.5q-228 0 -377 147t-149 378q0 115 35 209.5t92.5 157
t134.5 105.5t157.5 62t164.5 19q158 0 265 -54t107 -145q0 -59 -39 -95t-96 -36q-58 0 -94 26.5t-52.5 64t-31 75t-43 64t-76.5 26.5q-62 0 -107 -59.5t-66 -148t-21 -189.5z" />
    <glyph glyph-name="Ccaron" unicode="&#x10c;" horiz-adv-x="1828" 
d="M1034 1669l-366 359h20l346 -134l346 134h21zM106 805q0 133 33.5 253t107.5 227t182 184.5t267.5 123t354.5 45.5q361 0 612 -135v-454h-29q-71 248 -218.5 365.5t-373.5 117.5q-263 0 -422 -189.5t-159 -537.5t159 -537.5t422 -189.5q462 0 600 483h29v-455
q-249 -135 -631 -135q-193 0 -351 45.5t-265 123.5t-180 185t-105.5 227t-32.5 253z" />
    <glyph glyph-name="ccaron" unicode="&#x10d;" horiz-adv-x="1130" 
d="M641 1204l-367 408h21l346 -164l346 164h21zM416 578q0 -117 35.5 -216t112 -164t181.5 -65q98 0 176 62t113 190l35 -8q-38 -209 -149.5 -307.5t-307.5 -98.5q-228 0 -377 147t-149 378q0 115 35 209.5t92.5 157t134.5 105.5t157.5 62t164.5 19q158 0 265 -54t107 -145
q0 -59 -39 -95t-96 -36q-58 0 -94 26.5t-52.5 64t-31 75t-43 64t-76.5 26.5q-62 0 -107 -59.5t-66 -148t-21 -189.5z" />
    <glyph glyph-name="Dcaron" unicode="&#x10e;" horiz-adv-x="1785" 
d="M805 1669l-367 359h21l346 -134l346 134h20zM199 1612h512q294 0 512.5 -96.5t337 -279.5t118.5 -431q0 -374 -261.5 -589.5t-706.5 -215.5h-512v1612zM702 1487h-167v-1362h167q77 0 140 7t129 26t117 51t96.5 84t75.5 122.5t47.5 169t17.5 220.5q0 123 -17.5 221.5
t-47.5 169t-75.5 123t-96.5 84t-117 51t-129 26.5t-140 7z" />
    <glyph glyph-name="dcaron" unicode="&#x10f;" horiz-adv-x="1607" 
d="M1331 1516q0 55 35.5 90.5t97.5 35.5q63 0 96 -41.5t33 -107.5q0 -111 -81 -194.5t-197 -131.5l-4 15q57 34 101 88.5t44 111.5q-52 5 -88.5 43t-36.5 91zM889 1612h313v-1612h-313v1612zM86 510q0 228 137 383.5t344 155.5q124 0 199.5 -52.5t122.5 -156.5
q-80 75 -184 75q-127 0 -209 -114t-82 -291t82 -291.5t209 -114.5q102 0 184 76q-46 -103 -124 -156t-202 -53q-210 0 -343.5 150t-133.5 389z" />
    <glyph glyph-name="Dcroat" unicode="&#x110;" horiz-adv-x="1855" 
d="M780 0h-512v768h-268v129h268v715h512q294 0 512.5 -96.5t337.5 -279.5t119 -431t-119 -430.5t-337.5 -278.5t-512.5 -96zM604 125h168q77 0 140 7t129 26t117 51t96.5 84t75.5 122.5t47.5 169t17.5 220.5q0 123 -17.5 221.5t-47.5 169t-75.5 123t-96.5 84t-117 51
t-129 26.5t-140 7h-168v-590h311v-129h-311v-643z" />
    <glyph glyph-name="dslash" unicode="&#x111;" horiz-adv-x="1427" 
d="M1468 1204h-266v-1204h-313v1204h-271v113h271v295h313v-295h266v-113zM86 510q0 228 137 383.5t344 155.5q124 0 199.5 -52.5t122.5 -156.5q-80 75 -184 75q-127 0 -209 -114t-82 -291t82 -291.5t209 -114.5q102 0 184 76q-46 -103 -124 -156t-202 -53
q-210 0 -343.5 150t-133.5 389z" />
    <glyph glyph-name="Emacron" unicode="&#x112;" horiz-adv-x="1349" 
d="M393 1812v113h705v-113h-705zM199 0v1612h1075v-125h-739v-590h661v-129h-661v-643h739v-125h-1075z" />
    <glyph glyph-name="emacron" unicode="&#x113;" horiz-adv-x="1177" 
d="M260 1341v113h705v-113h-705zM616 979q-89 0 -141 -80t-57 -201h354q5 75 -7.5 136.5t-50.5 103t-98 41.5zM1071 395l35 -10q-46 -218 -161.5 -316t-311.5 -98q-239 0 -393 147t-154 378q0 254 155 403.5t398 149.5q193 0 316.5 -114.5t140.5 -320.5h-682q-4 -87 16 -171
t61 -154t111 -113t158 -43q104 0 183 57.5t128 204.5z" />
    <glyph glyph-name="Ebreve" unicode="&#x114;" horiz-adv-x="1349" 
d="M758 1794q102 0 165.5 58.5t69.5 175.5h101q-3 -82 -30.5 -144t-64.5 -96t-86 -55t-85.5 -27t-71.5 -6t-71.5 6t-85.5 27t-86 55t-64.5 96t-30.5 144h102q6 -117 70.5 -175.5t167.5 -58.5zM199 0v1612h1075v-125h-739v-590h661v-129h-661v-643h739v-125h-1075z" />
    <glyph glyph-name="ebreve" unicode="&#x115;" horiz-adv-x="1177" 
d="M618 1317q102 0 166 58t70 175h100q-3 -82 -30.5 -144t-64.5 -95.5t-86 -54.5t-85.5 -27t-71.5 -6t-71.5 6t-85 27t-85.5 54.5t-64.5 95.5t-30.5 144h102q6 -117 70 -175t167 -58zM616 979q-89 0 -141 -80t-57 -201h354q5 75 -7.5 136.5t-50.5 103t-98 41.5zM1071 395
l35 -10q-46 -218 -161.5 -316t-311.5 -98q-239 0 -393 147t-154 378q0 254 155 403.5t398 149.5q193 0 316.5 -114.5t140.5 -320.5h-682q-4 -87 16 -171t61 -154t111 -113t158 -43q104 0 183 57.5t128 204.5z" />
    <glyph glyph-name="Edotaccent" unicode="&#x116;" horiz-adv-x="1349" 
d="M598 1868q0 66 47 113t113 47t113 -47t47 -113t-47 -113t-113 -47t-113 47t-47 113zM199 0v1612h1075v-125h-739v-590h661v-129h-661v-643h739v-125h-1075z" />
    <glyph glyph-name="edotaccent" unicode="&#x117;" horiz-adv-x="1177" 
d="M446 1444q0 66 47 113t113 47t113 -47t47 -113t-47 -113t-113 -47t-113 47t-47 113zM616 979q-89 0 -141 -80t-57 -201h354q5 75 -7.5 136.5t-50.5 103t-98 41.5zM1071 395l35 -10q-46 -218 -161.5 -316t-311.5 -98q-239 0 -393 147t-154 378q0 254 155 403.5t398 149.5
q193 0 316.5 -114.5t140.5 -320.5h-682q-4 -87 16 -171t61 -154t111 -113t158 -43q104 0 183 57.5t128 204.5z" />
    <glyph glyph-name="Eogonek" unicode="&#x118;" horiz-adv-x="1349" 
d="M1112 0h-913v1612h1075v-125h-739v-590h661v-129h-661v-643h739v-125h-141q-57 -43 -99.5 -121.5t-42.5 -150.5q0 -68 41 -115t107 -47q33 0 67 12l6 -16q-93 -60 -188 -60q-86 0 -147.5 43t-61.5 129q0 171 297 326z" />
    <glyph glyph-name="eogonek" unicode="&#x119;" horiz-adv-x="1177" 
d="M616 979q-89 0 -141 -80t-57 -201h354q5 75 -7.5 136.5t-50.5 103t-98 41.5zM801 -422l6 -16q-93 -60 -189 -60q-86 0 -147 43t-61 129q0 157 245 297h-22q-239 0 -393 147t-154 378q0 254 155 403.5t398 149.5q193 0 316.5 -114.5t140.5 -320.5h-682q-4 -87 16 -171
t61 -154t111 -113t158 -43q104 0 183 57.5t128 204.5l35 -10q-42 -199 -141.5 -296.5t-266.5 -115.5q-49 -46 -80.5 -113.5t-31.5 -131.5q0 -68 40.5 -115t106.5 -47q33 0 68 12z" />
    <glyph glyph-name="Ecaron" unicode="&#x11a;" horiz-adv-x="1349" 
d="M768 1669l-367 359h21l346 -134l346 134h21zM199 0v1612h1075v-125h-739v-590h661v-129h-661v-643h739v-125h-1075z" />
    <glyph glyph-name="ecaron" unicode="&#x11b;" horiz-adv-x="1177" 
d="M618 1204l-366 408h20l346 -164l347 164h20zM616 979q-89 0 -141 -80t-57 -201h354q5 75 -7.5 136.5t-50.5 103t-98 41.5zM1071 395l35 -10q-46 -218 -161.5 -316t-311.5 -98q-239 0 -393 147t-154 378q0 254 155 403.5t398 149.5q193 0 316.5 -114.5t140.5 -320.5h-682
q-4 -87 16 -171t61 -154t111 -113t158 -43q104 0 183 57.5t128 204.5z" />
    <glyph glyph-name="Gcircumflex" unicode="&#x11c;" horiz-adv-x="1865" 
d="M1010 1831l-346 -143h-21l367 368l366 -368h-20zM461 805q0 -348 159 -537.5t422 -189.5q123 0 227.5 34.5t143.5 100.5v532h316v-559q-102 -98 -292 -156.5t-397 -58.5q-193 0 -351 45.5t-265 123.5t-180 185t-105.5 227t-32.5 253q0 110 24.5 212t74 196t128.5 171
t182.5 134t242 88.5t301.5 31.5q361 0 612 -135v-454h-29q-71 248 -218 365.5t-373 117.5q-130 0 -237.5 -47.5t-186.5 -137.5t-122.5 -228.5t-43.5 -313.5z" />
    <glyph glyph-name="gcircumflex" unicode="&#x11d;" horiz-adv-x="1296" 
d="M565 1401l-346 -164h-20l366 408l367 -408h-21zM569 436q93 0 131.5 69.5t38.5 201.5t-38.5 201t-131.5 69t-131.5 -69t-38.5 -201t38.5 -201.5t131.5 -69.5zM1192 -121q0 -98 -60.5 -176t-160 -124t-216.5 -69.5t-241 -23.5q-245 0 -372.5 62t-127.5 169q0 45 21.5 79
t65.5 57.5t94.5 38t123.5 28.5q-97 18 -153.5 72t-56.5 143q0 87 87 153t238 89q-159 29 -251.5 118t-92.5 212q0 146 132 244t347 98q91 0 185 -23h549v-113l-363 19q109 -92 109 -225q0 -146 -132.5 -244t-347.5 -98q-59 0 -127 10q-64 -22 -91 -53t-27 -74
q0 -38 38.5 -52t141.5 -14h149q103 0 178.5 -6.5t147 -25.5t116 -52t71 -88t26.5 -131zM506 -428q87 0 153.5 9t121 30t83.5 59.5t29 93.5q0 59 -35.5 93.5t-90 45.5t-138.5 11h-230q-19 0 -65 4q-111 -60 -111 -170q0 -89 77 -132.5t206 -43.5z" />
    <glyph glyph-name="Gbreve" unicode="&#x11e;" horiz-adv-x="1865" 
d="M971 1794q102 0 165.5 58.5t69.5 175.5h101q-3 -82 -30.5 -144t-64.5 -96t-86 -55t-85.5 -27t-71.5 -6t-71.5 6t-85.5 27t-86 55t-64.5 96t-30.5 144h102q6 -117 70.5 -175.5t167.5 -58.5zM461 805q0 -348 159 -537.5t422 -189.5q123 0 227.5 34.5t143.5 100.5v532h316
v-559q-102 -98 -292 -156.5t-397 -58.5q-193 0 -351 45.5t-265 123.5t-180 185t-105.5 227t-32.5 253q0 110 24.5 212t74 196t128.5 171t182.5 134t242 88.5t301.5 31.5q361 0 612 -135v-454h-29q-71 248 -218 365.5t-373 117.5q-130 0 -237.5 -47.5t-186.5 -137.5
t-122.5 -228.5t-43.5 -313.5z" />
    <glyph glyph-name="gbreve" unicode="&#x11f;" horiz-adv-x="1296" 
d="M553 1317q102 0 165.5 58t69.5 175h101q-3 -82 -30.5 -144t-64.5 -95.5t-86 -54.5t-85.5 -27t-71.5 -6t-71.5 6t-85.5 27t-86 54.5t-64.5 95.5t-30.5 144h102q6 -117 70.5 -175t167.5 -58zM569 436q93 0 131.5 69.5t38.5 201.5t-38.5 201t-131.5 69t-131.5 -69
t-38.5 -201t38.5 -201.5t131.5 -69.5zM1192 -121q0 -98 -60.5 -176t-160 -124t-216.5 -69.5t-241 -23.5q-245 0 -372.5 62t-127.5 169q0 45 21.5 79t65.5 57.5t94.5 38t123.5 28.5q-97 18 -153.5 72t-56.5 143q0 87 87 153t238 89q-159 29 -251.5 118t-92.5 212
q0 146 132 244t347 98q91 0 185 -23h549v-113l-363 19q109 -92 109 -225q0 -146 -132.5 -244t-347.5 -98q-59 0 -127 10q-64 -22 -91 -53t-27 -74q0 -38 38.5 -52t141.5 -14h149q103 0 178.5 -6.5t147 -25.5t116 -52t71 -88t26.5 -131zM506 -428q87 0 153.5 9t121 30
t83.5 59.5t29 93.5q0 59 -35.5 93.5t-90 45.5t-138.5 11h-230q-19 0 -65 4q-111 -60 -111 -170q0 -89 77 -132.5t206 -43.5z" />
    <glyph glyph-name="Gdotaccent" unicode="&#x120;" horiz-adv-x="1865" 
d="M850 1868q0 66 47 113t113 47t112.5 -47t46.5 -113t-46.5 -113t-112.5 -47t-113 47t-47 113zM461 805q0 -348 159 -537.5t422 -189.5q123 0 227.5 34.5t143.5 100.5v532h316v-559q-102 -98 -292 -156.5t-397 -58.5q-193 0 -351 45.5t-265 123.5t-180 185t-105.5 227
t-32.5 253q0 110 24.5 212t74 196t128.5 171t182.5 134t242 88.5t301.5 31.5q361 0 612 -135v-454h-29q-71 248 -218 365.5t-373 117.5q-130 0 -237.5 -47.5t-186.5 -137.5t-122.5 -228.5t-43.5 -313.5z" />
    <glyph glyph-name="gdotaccent" unicode="&#x121;" horiz-adv-x="1296" 
d="M420 1444q0 66 47 113t113 47t112.5 -47t46.5 -113t-46.5 -113t-112.5 -47t-113 47t-47 113zM569 436q93 0 131.5 69.5t38.5 201.5t-38.5 201t-131.5 69t-131.5 -69t-38.5 -201t38.5 -201.5t131.5 -69.5zM1192 -121q0 -98 -60.5 -176t-160 -124t-216.5 -69.5t-241 -23.5
q-245 0 -372.5 62t-127.5 169q0 45 21.5 79t65.5 57.5t94.5 38t123.5 28.5q-97 18 -153.5 72t-56.5 143q0 87 87 153t238 89q-159 29 -251.5 118t-92.5 212q0 146 132 244t347 98q91 0 185 -23h549v-113l-363 19q109 -92 109 -225q0 -146 -132.5 -244t-347.5 -98
q-59 0 -127 10q-64 -22 -91 -53t-27 -74q0 -38 38.5 -52t141.5 -14h149q103 0 178.5 -6.5t147 -25.5t116 -52t71 -88t26.5 -131zM506 -428q87 0 153.5 9t121 30t83.5 59.5t29 93.5q0 59 -35.5 93.5t-90 45.5t-138.5 11h-230q-19 0 -65 4q-111 -60 -111 -170q0 -89 77 -132.5
t206 -43.5z" />
    <glyph glyph-name="uni0122" unicode="&#x122;" horiz-adv-x="1865" 
d="M461 805q0 -348 159 -537.5t422 -189.5q123 0 227.5 34.5t143.5 100.5v532h316v-559q-102 -98 -292 -156.5t-397 -58.5q-193 0 -351 45.5t-265 123.5t-180 185t-105.5 227t-32.5 253q0 110 24.5 212t74 196t128.5 171t182.5 134t242 88.5t301.5 31.5q361 0 612 -135v-454
h-29q-71 248 -218 365.5t-373 117.5q-130 0 -237.5 -47.5t-186.5 -137.5t-122.5 -228.5t-43.5 -313.5zM807 -270q0 56 35.5 91.5t97.5 35.5q63 0 96 -42t33 -108q0 -111 -81 -194t-197 -131l-5 14q57 34 101.5 89t44.5 112q-52 5 -88.5 42.5t-36.5 90.5z" />
    <glyph glyph-name="uni0123" unicode="&#x123;" horiz-adv-x="1296" 
d="M705 1294q0 -55 -36 -91t-98 -36q-63 0 -96 42t-33 108q0 58 24.5 110.5t66 92.5t88 70t100.5 52l4 -14q-57 -34 -101 -89t-44 -112q52 -5 88.5 -42.5t36.5 -90.5zM569 436q93 0 131.5 69.5t38.5 201.5t-38.5 201t-131.5 69t-131.5 -69t-38.5 -201t38.5 -201.5
t131.5 -69.5zM1192 -121q0 -98 -60.5 -176t-160 -124t-216.5 -69.5t-241 -23.5q-245 0 -372.5 62t-127.5 169q0 45 21.5 79t65.5 57.5t94.5 38t123.5 28.5q-97 18 -153.5 72t-56.5 143q0 87 87 153t238 89q-159 29 -251.5 118t-92.5 212q0 146 132 244t347 98q91 0 185 -23
h549v-113l-363 19q109 -92 109 -225q0 -146 -132.5 -244t-347.5 -98q-59 0 -127 10q-64 -22 -91 -53t-27 -74q0 -38 38.5 -52t141.5 -14h149q103 0 178.5 -6.5t147 -25.5t116 -52t71 -88t26.5 -131zM506 -428q87 0 153.5 9t121 30t83.5 59.5t29 93.5q0 59 -35.5 93.5
t-90 45.5t-138.5 11h-230q-19 0 -65 4q-111 -60 -111 -170q0 -89 77 -132.5t206 -43.5z" />
    <glyph glyph-name="Hcircumflex" unicode="&#x124;" horiz-adv-x="1822" 
d="M911 1831l-346 -143h-20l366 368l367 -368h-21zM1288 0v768h-753v-768h-336v1612h336v-715h753v715h336v-1612h-336z" />
    <glyph glyph-name="hcircumflex" unicode="&#x125;" horiz-adv-x="1271" 
d="M-18 1653h-21l346 366l346 -366h-20l-326 143zM471 1612v-1612h-313v1612h313zM668 879q-138 0 -197 -121q35 153 128 222t222 69q324 0 324 -396v-653h-314v633q0 132 -45 189t-118 57z" />
    <glyph glyph-name="Hbar" unicode="&#x126;" horiz-adv-x="1822" 
d="M1288 897v279h-753v-279h753zM1288 0v768h-753v-768h-336v1612h336v-307h753v307h336v-1612h-336z" />
    <glyph glyph-name="hbar" unicode="&#x127;" horiz-adv-x="1359" 
d="M850 1204h-291v-1204h-313v1204h-246v113h246v295h313v-295h291v-113zM756 879q-138 0 -197 -121q35 153 128 222t222 69q324 0 324 -396v-653h-313v633q0 131 -45 188.5t-119 57.5z" />
    <glyph glyph-name="Itilde" unicode="&#x128;" horiz-adv-x="733" 
d="M627 2003l92 117l14 -9l-96 -299h-528l-93 -116l-14 8l96 299h529zM199 0v1612h336v-1612h-336z" />
    <glyph glyph-name="itilde" unicode="&#x129;" 
d="M573 1552l93 117l14 -8l-96 -299h-529l-92 -117l-14 8l96 299h528zM471 1026v-1026h-313v1026h313z" />
    <glyph glyph-name="Imacron" unicode="&#x12a;" horiz-adv-x="733" 
d="M16 1812v113h705v-113h-705zM199 0v1612h336v-1612h-336z" />
    <glyph glyph-name="imacron" unicode="&#x12b;" 
d="M-37 1341v113h705v-113h-705zM471 1026v-1026h-313v1026h313z" />
    <glyph glyph-name="Ibreve" unicode="&#x12c;" horiz-adv-x="733" 
d="M369 1794q102 0 165.5 58.5t69.5 175.5h101q-3 -82 -30.5 -144t-64.5 -96t-86 -55t-85.5 -27t-71.5 -6t-71.5 6t-85.5 27t-86 55t-64.5 96t-30.5 144h102q6 -117 70.5 -175.5t167.5 -58.5zM199 0v1612h336v-1612h-336z" />
    <glyph glyph-name="ibreve" unicode="&#x12d;" 
d="M317 1317q102 0 166 58t70 175h100q-3 -82 -30.5 -144t-64.5 -95.5t-86 -54.5t-85.5 -27t-71.5 -6t-71.5 6t-85.5 27t-86 54.5t-64.5 95.5t-30.5 144h103q6 -117 70 -175t167 -58zM471 1026v-1026h-313v1026h313z" />
    <glyph glyph-name="Iogonek" unicode="&#x12e;" horiz-adv-x="733" 
d="M414 0h-215v1612h336v-1612h-101q-56 -43 -98.5 -121.5t-42.5 -150.5q0 -68 40.5 -115t106.5 -47q34 0 68 12l6 -16q-93 -60 -188 -60q-86 0 -147.5 43t-61.5 129q0 171 297 326z" />
    <glyph glyph-name="iogonek" unicode="&#x12f;" 
d="M133 1407q0 75 53.5 128.5t128.5 53.5t129 -53.5t54 -128.5t-54 -128.5t-129 -53.5t-128.5 53.5t-53.5 128.5zM371 0h-213v1026h313v-1026h-80q-56 -43 -98.5 -121.5t-42.5 -150.5q0 -68 40.5 -115t106.5 -47q33 0 68 12l6 -16q-93 -60 -188 -60q-86 0 -147.5 43
t-61.5 129q0 171 297 326z" />
    <glyph glyph-name="Idot" unicode="&#x130;" horiz-adv-x="733" 
d="M207 1868q0 66 47 113t113 47t112.5 -47t46.5 -113t-46.5 -113t-112.5 -47t-113 47t-47 113zM199 0v1612h336v-1612h-336z" />
    <glyph glyph-name="dotlessi" unicode="&#x131;" 
d="M471 1026v-1026h-313v1026h313z" />
    <glyph glyph-name="Jcircumflex" unicode="&#x134;" horiz-adv-x="747" 
d="M397 1831l-346 -143h-20l366 368l367 -368h-21zM561 1612v-1174q0 -55 -9.5 -104.5t-24.5 -91t-42.5 -82t-55 -72.5t-70.5 -67t-80 -61.5t-93.5 -59.5t-101 -57.5t-111.5 -59.5l-14 24q66 55 104.5 90t71.5 75t48 69t26 74t13.5 89t2.5 115v1293h336z" />
    <glyph glyph-name="jcircumflex" unicode="&#x135;" 
d="M315 1401l-346 -164h-20l366 408l367 -408h-20zM158 12v1014h313v-895q0 -70 -13.5 -131.5t-36.5 -112t-63 -98t-82 -85.5t-105 -79.5t-121 -74.5t-140 -76l-16 26q66 56 104 91t71.5 75t48 68.5t25.5 74t13 88.5t2 115z" />
    <glyph glyph-name="uni0136" unicode="&#x136;" horiz-adv-x="1624" 
d="M199 0v1612h336v-1612h-336zM1364 1612h164l-692 -709l794 -903h-424l-671 768zM690 -270q0 56 36 91.5t97 35.5q63 0 96 -42t33 -108q0 -111 -81 -194t-197 -131l-4 14q57 34 101 89t44 112q-52 5 -88.5 42.5t-36.5 90.5z" />
    <glyph glyph-name="uni0137" unicode="&#x137;" horiz-adv-x="1198" 
d="M471 1612v-1612h-313v1612h313zM979 1026h154l-369 -371l444 -655h-385l-352 526zM485 -270q0 56 35.5 91.5t97.5 35.5q63 0 96.5 -42t33.5 -108q0 -58 -24.5 -110.5t-66 -92.5t-88 -70t-100.5 -52l-4 14q57 34 101 89t44 112q-52 5 -88.5 42.5t-36.5 90.5z" />
    <glyph glyph-name="Lacute" unicode="&#x139;" horiz-adv-x="1247" 
d="M725 2028l-471 -340h-21l76 340h416zM535 1612v-1487h718v-125h-1054v1612h336z" />
    <glyph glyph-name="lacute" unicode="&#x13a;" 
d="M664 2028l-471 -340h-21l76 340h416zM471 1612v-1612h-313v1612h313z" />
    <glyph glyph-name="uni013B" unicode="&#x13b;" horiz-adv-x="1247" 
d="M535 1612v-1487h718v-125h-1054v1612h336zM563 -270q0 56 35.5 91.5t97.5 35.5q63 0 96 -42t33 -108q0 -111 -81 -194t-197 -131l-4 14q57 34 101 89t44 112q-52 5 -88.5 42.5t-36.5 90.5z" />
    <glyph glyph-name="uni013C" unicode="&#x13c;" 
d="M471 1612v-1612h-313v1612h313zM188 -270q0 55 36 91t98 36q63 0 96 -42t33 -108q0 -58 -24.5 -110.5t-66 -92.5t-88 -70t-100.5 -52l-4 14q57 34 101 89t44 112q-52 5 -88.5 42.5t-36.5 90.5z" />
    <glyph glyph-name="Lcaron" unicode="&#x13d;" horiz-adv-x="1247" 
d="M860 1516q0 55 35.5 90.5t97.5 35.5q63 0 96 -41.5t33 -107.5q0 -111 -81 -194.5t-197 -131.5l-4 15q57 34 101 88.5t44 111.5q-52 5 -88.5 43t-36.5 91zM535 1612v-1487h718v-125h-1054v1612h336z" />
    <glyph glyph-name="lcaron" unicode="&#x13e;" horiz-adv-x="917" 
d="M635 1516q0 55 35.5 90.5t97.5 35.5q63 0 96 -41.5t33 -107.5q0 -111 -81.5 -194.5t-197.5 -131.5l-4 15q57 34 101.5 88.5t44.5 111.5q-52 5 -88.5 43t-36.5 91zM471 1612v-1612h-313v1612h313z" />
    <glyph glyph-name="Ldot" unicode="&#x13f;" horiz-adv-x="1247" 
d="M535 1612v-1487h718v-125h-1054v1612h336zM696 877q0 66 47 112.5t113 46.5t113 -46.5t47 -112.5t-47 -113t-113 -47t-113 47t-47 113z" />
    <glyph glyph-name="ldot" unicode="&#x140;" horiz-adv-x="954" 
d="M471 1612v-1612h-313v1612h313zM614 877q0 66 47 112.5t113 46.5t113 -46.5t47 -112.5t-47 -113t-113 -47t-113 47t-47 113z" />
    <glyph glyph-name="Lslash" unicode="&#x141;" horiz-adv-x="1325" 
d="M1331 0h-1055v664l-194 -107l-62 113l256 141v801h336v-617l211 115l62 -115l-273 -149v-721h719v-125z" />
    <glyph glyph-name="lslash" unicode="&#x142;" horiz-adv-x="823" 
d="M565 0h-313v672l-211 -115l-61 113l272 149v793h313v-621l217 119l62 -115l-279 -151v-844z" />
    <glyph glyph-name="Nacute" unicode="&#x143;" horiz-adv-x="1712" 
d="M1368 2028l-471 -340h-20l75 340h416zM1374 1612h139v-1612h-303l-872 1378v-1378h-139v1612h366l809 -1278v1278z" />
    <glyph glyph-name="nacute" unicode="&#x144;" horiz-adv-x="1271" 
d="M1006 1612l-471 -375h-21l137 375h355zM668 879q-138 0 -197 -121q35 153 128 222t222 69q324 0 324 -396v-653h-314v633q0 132 -45 189t-118 57zM471 1026v-1026h-313v1026h313z" />
    <glyph glyph-name="uni0145" unicode="&#x145;" horiz-adv-x="1712" 
d="M1374 1612h139v-1612h-303l-872 1378v-1378h-139v1612h366l809 -1278v1278zM715 -270q0 56 35.5 91.5t97.5 35.5q63 0 96 -42t33 -108q0 -58 -24.5 -110.5t-66 -92.5t-88 -70t-100.5 -52l-4 14q57 34 101.5 89t44.5 112q-52 5 -88.5 42.5t-36.5 90.5z" />
    <glyph glyph-name="uni0146" unicode="&#x146;" horiz-adv-x="1271" 
d="M668 879q-138 0 -197 -121q35 153 128 222t222 69q324 0 324 -396v-653h-314v633q0 132 -45 189t-118 57zM471 1026v-1026h-313v1026h313zM514 -270q0 56 36 91.5t97 35.5q63 0 96 -42t33 -108q0 -111 -81 -194t-197 -131l-4 14q57 34 101 89t44 112q-52 5 -88.5 42.5
t-36.5 90.5z" />
    <glyph glyph-name="Ncaron" unicode="&#x147;" horiz-adv-x="1712" 
d="M948 1669l-366 359h20l346 -134l346 134h21zM1374 1612h139v-1612h-303l-872 1378v-1378h-139v1612h366l809 -1278v1278z" />
    <glyph glyph-name="ncaron" unicode="&#x148;" horiz-adv-x="1271" 
d="M690 1204l-366 408h20l346 -164l346 164h21zM668 879q-138 0 -197 -121q35 153 128 222t222 69q324 0 324 -396v-653h-314v633q0 132 -45 189t-118 57zM471 1026v-1026h-313v1026h313z" />
    <glyph glyph-name="Eng" unicode="&#x14a;" horiz-adv-x="1712" 
d="M1513 1612v-1495q0 -70 -14.5 -132t-38 -111.5t-65.5 -97.5t-84 -85t-107.5 -79.5t-122.5 -74.5t-141 -76l-14 25q93 79 143.5 133t80 117.5t37 124t7.5 166.5l-856 1351v-1378h-139v1612h366l809 -1278v1278h139z" />
    <glyph glyph-name="eng" unicode="&#x14b;" horiz-adv-x="1271" 
d="M831 195v438q0 132 -45 189t-118 57q-138 0 -197 -121q35 153 128 222t222 69q324 0 324 -396v-479q0 -115 -19 -199.5t-70 -170.5t-144.5 -166t-239.5 -168l-21 26q180 192 180 699zM471 1026v-1026h-313v1026h313z" />
    <glyph glyph-name="Omacron" unicode="&#x14c;" horiz-adv-x="1974" 
d="M614 1812v113h705v-113h-705zM106 805q0 250 114.5 440.5t314 291.5t452.5 101t452.5 -101t314 -291.5t114.5 -440.5t-114.5 -441t-314 -292t-452.5 -101t-452.5 101t-314 292t-114.5 441zM1513 805q0 150 -27.5 273t-75.5 208t-115 143t-144 84.5t-164 26.5
q-109 0 -202 -43.5t-166.5 -130t-115.5 -230.5t-42 -331t42 -331t115.5 -230.5t166.5 -130t202 -43.5q87 0 164 26.5t144 84.5t115 143t75.5 208t27.5 273z" />
    <glyph glyph-name="omacron" unicode="&#x14d;" horiz-adv-x="1294" 
d="M295 1341v113h704v-113h-704zM1208 510q0 -113 -39.5 -212t-111 -171.5t-177.5 -114t-233 -41.5t-233 41.5t-177.5 114t-111 171.5t-39.5 212t39.5 212t111 171.5t177.5 114t233 41.5t233 -41.5t177.5 -114t111 -171.5t39.5 -212zM881 510q0 68 -5.5 128t-21 124
t-40.5 109t-68 74.5t-99 29.5t-99 -29.5t-67.5 -74.5t-40 -109t-21 -124t-5.5 -128t5.5 -128t21 -124t40 -109t67.5 -74.5t99 -29.5t99 29.5t68 74.5t40.5 109t21 124t5.5 128z" />
    <glyph glyph-name="Obreve" unicode="&#x14e;" horiz-adv-x="1974" 
d="M969 1794q102 0 165.5 58.5t69.5 175.5h101q-3 -82 -30.5 -144t-64.5 -96t-86 -55t-85.5 -27t-71.5 -6t-71.5 6t-85.5 27t-86 55t-64.5 96t-30.5 144h102q6 -117 70.5 -175.5t167.5 -58.5zM106 805q0 250 114.5 440.5t314 291.5t452.5 101t452.5 -101t314 -291.5
t114.5 -440.5t-114.5 -441t-314 -292t-452.5 -101t-452.5 101t-314 292t-114.5 441zM1513 805q0 150 -27.5 273t-75.5 208t-115 143t-144 84.5t-164 26.5q-109 0 -202 -43.5t-166.5 -130t-115.5 -230.5t-42 -331t42 -331t115.5 -230.5t166.5 -130t202 -43.5q87 0 164 26.5
t144 84.5t115 143t75.5 208t27.5 273z" />
    <glyph glyph-name="obreve" unicode="&#x14f;" horiz-adv-x="1294" 
d="M649 1317q102 0 166 58t70 175h100q-3 -82 -30.5 -144t-64.5 -95.5t-86 -54.5t-85.5 -27t-71.5 -6t-71.5 6t-85.5 27t-86 54.5t-64.5 95.5t-30.5 144h103q6 -117 70 -175t167 -58zM1208 510q0 -113 -39.5 -212t-111 -171.5t-177.5 -114t-233 -41.5t-233 41.5t-177.5 114
t-111 171.5t-39.5 212t39.5 212t111 171.5t177.5 114t233 41.5t233 -41.5t177.5 -114t111 -171.5t39.5 -212zM881 510q0 68 -5.5 128t-21 124t-40.5 109t-68 74.5t-99 29.5t-99 -29.5t-67.5 -74.5t-40 -109t-21 -124t-5.5 -128t5.5 -128t21 -124t40 -109t67.5 -74.5
t99 -29.5t99 29.5t68 74.5t40.5 109t21 124t5.5 128z" />
    <glyph glyph-name="Ohungarumlaut" unicode="&#x150;" horiz-adv-x="1974" 
d="M1624 2028l-471 -340h-20l75 340h416zM1155 2028l-471 -340h-20l75 340h416zM106 805q0 250 114.5 440.5t314 291.5t452.5 101t452.5 -101t314 -291.5t114.5 -440.5t-114.5 -441t-314 -292t-452.5 -101t-452.5 101t-314 292t-114.5 441zM1513 805q0 150 -27.5 273
t-75.5 208t-115 143t-144 84.5t-164 26.5q-109 0 -202 -43.5t-166.5 -130t-115.5 -230.5t-42 -331t42 -331t115.5 -230.5t166.5 -130t202 -43.5q87 0 164 26.5t144 84.5t115 143t75.5 208t27.5 273z" />
    <glyph glyph-name="ohungarumlaut" unicode="&#x151;" horiz-adv-x="1294" 
d="M1296 1612l-471 -375h-20l137 375h354zM868 1612l-471 -375h-20l137 375h354zM1208 510q0 -113 -39.5 -212t-111 -171.5t-177.5 -114t-233 -41.5t-233 41.5t-177.5 114t-111 171.5t-39.5 212t39.5 212t111 171.5t177.5 114t233 41.5t233 -41.5t177.5 -114t111 -171.5
t39.5 -212zM881 510q0 68 -5.5 128t-21 124t-40.5 109t-68 74.5t-99 29.5t-99 -29.5t-67.5 -74.5t-40 -109t-21 -124t-5.5 -128t5.5 -128t21 -124t40 -109t67.5 -74.5t99 -29.5t99 29.5t68 74.5t40.5 109t21 124t5.5 128z" />
    <glyph glyph-name="OE" unicode="&#x152;" horiz-adv-x="2646" 
d="M1513 805q0 150 -27.5 273t-75.5 208t-115 143t-144 84.5t-164 26.5q-109 0 -202 -43.5t-166.5 -130t-115.5 -230.5t-42 -331t42 -331t115.5 -230.5t166.5 -130t202 -43.5q87 0 164 26.5t144 84.5t115 143t75.5 208t27.5 273zM1475 0v147q-191 -176 -488 -176
q-253 0 -452.5 101t-314 292t-114.5 441t114.5 440.5t314 291.5t452.5 101q297 0 488 -176v150h1095v-117h-760v-604h682v-117h-682v-657h760v-117h-1095z" />
    <glyph glyph-name="oe" unicode="&#x153;" horiz-adv-x="1931" 
d="M1851 371l35 -17q-66 -198 -179.5 -290.5t-293.5 -92.5q-232 0 -379 144q-147 -144 -387 -144q-127 0 -233 41.5t-177.5 114t-111 171.5t-39.5 212t39.5 212t111 171.5t177.5 114t233 41.5q240 0 389 -146q146 146 383 146q193 0 316.5 -114.5t140.5 -320.5h-682
q-4 -87 16 -171t61 -154t111 -113t158 -43q209 0 311 238zM1397 979q-89 0 -141.5 -80t-57.5 -201h354q5 76 -7.5 137t-50 102.5t-97.5 41.5zM414 510q0 -68 5.5 -128t21 -124t40 -109t67.5 -74.5t99 -29.5t99 29.5t68 74.5t40.5 109t21 124t5.5 128t-5.5 128t-21 124
t-40.5 109t-68 74.5t-99 29.5t-99 -29.5t-67.5 -74.5t-40 -109t-21 -124t-5.5 -128z" />
    <glyph glyph-name="Racute" unicode="&#x154;" horiz-adv-x="1579" 
d="M1157 2028l-471 -340h-20l75 340h416zM1059 1174q0 94 -27.5 158t-84 99t-129 49.5t-175.5 14.5h-108v-633h102q213 0 317.5 69t104.5 243zM535 0h-336v1612h422q114 0 207.5 -7t186 -24t162 -48t124 -76.5t82.5 -112.5t28 -152q0 -88 -27.5 -154.5t-82 -112t-122 -75
t-159.5 -51.5l541 -799h-396l-481 743h-149v-743z" />
    <glyph glyph-name="racute" unicode="&#x155;" horiz-adv-x="903" 
d="M942 1612l-471 -375h-20l137 375h354zM471 1026v-1026h-313v1026h313zM872 1034v-280q-115 16 -198 16q-161 0 -203 -74q27 79 58 136.5t78 105.5t113 72t152 24z" />
    <glyph glyph-name="uni0156" unicode="&#x156;" horiz-adv-x="1579" 
d="M1059 1174q0 94 -27.5 158t-84 99t-129 49.5t-175.5 14.5h-108v-633h102q213 0 317.5 69t104.5 243zM535 0h-336v1612h422q114 0 207.5 -7t186 -24t162 -48t124 -76.5t82.5 -112.5t28 -152q0 -88 -27.5 -154.5t-82 -112t-122 -75t-159.5 -51.5l541 -799h-396l-481 743
h-149v-743zM668 -270q0 56 36 91.5t97 35.5q63 0 96 -42t33 -108q0 -58 -24.5 -110.5t-66 -92.5t-88 -70t-100.5 -52l-4 14q57 34 101.5 89t44.5 112q-52 5 -88.5 42.5t-36.5 90.5z" />
    <glyph glyph-name="uni0157" unicode="&#x157;" horiz-adv-x="903" 
d="M471 1026v-1026h-313v1026h313zM872 1034v-280q-115 16 -198 16q-161 0 -203 -74q27 79 58 136.5t78 105.5t113 72t152 24zM180 -270q0 56 36 91.5t97 35.5q63 0 96 -42t33 -108q0 -111 -81 -194t-197 -131l-4 14q57 34 101 89t44 112q-52 5 -88.5 42.5t-36.5 90.5z" />
    <glyph glyph-name="Rcaron" unicode="&#x158;" horiz-adv-x="1579" 
d="M748 1653l-367 407h20l347 -164l346 164h20zM1059 1174q0 94 -27.5 158t-84 99t-129 49.5t-175.5 14.5h-108v-633h102q213 0 317.5 69t104.5 243zM535 0h-336v1612h422q114 0 207.5 -7t186 -24t162 -48t124 -76.5t82.5 -112.5t28 -152q0 -88 -27.5 -154.5t-82 -112
t-122 -75t-159.5 -51.5l541 -799h-396l-481 743h-149v-743z" />
    <glyph glyph-name="rcaron" unicode="&#x159;" horiz-adv-x="903" 
d="M498 1204l-367 408h21l346 -164l346 164h20zM471 1026v-1026h-313v1026h313zM872 1034v-280q-115 16 -198 16q-161 0 -203 -74q27 79 58 136.5t78 105.5t113 72t152 24z" />
    <glyph glyph-name="Sacute" unicode="&#x15a;" horiz-adv-x="1458" 
d="M1100 2028l-471 -340h-21l76 340h416zM680 78q375 0 375 272q0 63 -26.5 115t-76 90.5t-106 66.5t-129.5 52l-152 51q-399 131 -399 487q0 136 76.5 234t200.5 145t280 47q292 0 491 -108v-461h-28q-32 110 -73 193t-97 146t-131.5 95.5t-167.5 32.5q-146 0 -227.5 -56.5
t-81.5 -154.5q0 -93 67.5 -167.5t222.5 -131.5l185 -65q52 -19 92.5 -36t88 -42.5t82.5 -52t69.5 -64.5t56.5 -80.5t35.5 -98.5t13.5 -120q0 -101 -33.5 -184t-92 -140.5t-139.5 -96.5t-173 -57t-195 -18q-141 0 -282 30.5t-248 88.5v510h28q60 -253 178 -387.5t316 -134.5z
" />
    <glyph glyph-name="sacute" unicode="&#x15b;" horiz-adv-x="1028" 
d="M938 1612l-471 -375h-21l138 375h354zM496 -29q-103 0 -193 25t-150.5 78t-60.5 125q0 51 31.5 82.5t85.5 31.5q40 0 66.5 -14.5t40.5 -38t24 -51.5t23 -56t32 -51.5t55.5 -38t88.5 -14.5q86 0 138 38.5t52 105.5q0 64 -52 111t-175 81l-84 23q-303 81 -303 327
q0 137 119 227.5t311 90.5q90 0 169 -21t132 -65.5t53 -104.5q0 -52 -32 -84.5t-85 -32.5q-39 0 -66 13t-41 33.5t-24 45.5t-22 50t-28.5 45.5t-49 33.5t-78.5 13q-72 0 -116 -34.5t-44 -90.5q0 -123 217 -182l84 -23q179 -47 255.5 -124t76.5 -210q0 -160 -129 -252
t-321 -92z" />
    <glyph glyph-name="Scircumflex" unicode="&#x15c;" horiz-adv-x="1458" 
d="M729 1831l-346 -143h-21l367 368l367 -368h-21zM680 78q375 0 375 272q0 63 -26.5 115t-76 90.5t-106 66.5t-129.5 52l-152 51q-399 131 -399 487q0 136 76.5 234t200.5 145t280 47q292 0 491 -108v-461h-28q-32 110 -73 193t-97 146t-131.5 95.5t-167.5 32.5
q-146 0 -227.5 -56.5t-81.5 -154.5q0 -93 67.5 -167.5t222.5 -131.5l185 -65q52 -19 92.5 -36t88 -42.5t82.5 -52t69.5 -64.5t56.5 -80.5t35.5 -98.5t13.5 -120q0 -101 -33.5 -184t-92 -140.5t-139.5 -96.5t-173 -57t-195 -18q-141 0 -282 30.5t-248 88.5v510h28
q60 -253 178 -387.5t316 -134.5z" />
    <glyph glyph-name="scircumflex" unicode="&#x15d;" horiz-adv-x="1028" 
d="M528 1401l-346 -164h-20l366 408l367 -408h-21zM496 -29q-103 0 -193 25t-150.5 78t-60.5 125q0 51 31.5 82.5t85.5 31.5q40 0 66.5 -14.5t40.5 -38t24 -51.5t23 -56t32 -51.5t55.5 -38t88.5 -14.5q86 0 138 38.5t52 105.5q0 64 -52 111t-175 81l-84 23q-303 81 -303 327
q0 137 119 227.5t311 90.5q90 0 169 -21t132 -65.5t53 -104.5q0 -52 -32 -84.5t-85 -32.5q-39 0 -66 13t-41 33.5t-24 45.5t-22 50t-28.5 45.5t-49 33.5t-78.5 13q-72 0 -116 -34.5t-44 -90.5q0 -123 217 -182l84 -23q179 -47 255.5 -124t76.5 -210q0 -160 -129 -252
t-321 -92z" />
    <glyph glyph-name="Scedilla" unicode="&#x15e;" horiz-adv-x="1458" 
d="M522 -571l-2 12q93 16 149 86t56 139q0 36 -17 57t-49 21q-19 0 -59 -16l-49 39l96 204q-281 10 -489 119v510h28q60 -253 178 -387.5t316 -134.5q375 0 375 272q0 63 -26.5 115t-76 90.5t-106 66.5t-129.5 52l-152 51q-399 131 -399 487q0 136 76.5 234t200.5 145
t280 47q292 0 491 -108v-461h-28q-32 110 -73 193t-97 146t-131.5 95.5t-167.5 32.5q-146 0 -227.5 -56.5t-81.5 -154.5q0 -93 67.5 -167.5t222.5 -131.5l185 -65q52 -19 92.5 -36t88 -42.5t82.5 -52t69.5 -64.5t56.5 -80.5t35.5 -98.5t13.5 -120q0 -123 -49 -219
t-134.5 -155t-194 -89.5t-234.5 -32.5l-99 -200q62 45 133 45q62 0 105 -36.5t43 -96.5q0 -61 -36.5 -111.5t-93 -80.5t-119 -46t-120.5 -16z" />
    <glyph glyph-name="scedilla" unicode="&#x15f;" horiz-adv-x="1028" 
d="M344 -530l-2 12q93 16 149 86t56 139q0 36 -17 57t-49 21q-19 0 -59 -16l-49 38l94 164q-97 3 -181 30t-139 79t-55 119q0 51 31.5 82.5t85.5 31.5q40 0 66.5 -14.5t40.5 -38t24 -51.5t23 -56t32 -51.5t55.5 -38t88.5 -14.5q86 0 138 38.5t52 105.5q0 64 -52 111t-175 81
l-84 23q-303 81 -303 327q0 137 119 227.5t311 90.5q90 0 169 -21t132 -65.5t53 -104.5q0 -52 -32 -84.5t-85 -32.5q-39 0 -66 13t-41 33.5t-24 45.5t-22 50t-28.5 45.5t-49 33.5t-78.5 13q-72 0 -116 -34.5t-44 -90.5q0 -123 217 -182l84 -23q179 -47 255.5 -124t76.5 -210
q0 -152 -119 -244t-299 -100l-96 -159q62 45 133 45q62 0 105 -36.5t43 -96.5q0 -61 -36.5 -111.5t-93 -80.5t-119 -46t-120.5 -16z" />
    <glyph glyph-name="Scaron" unicode="&#x160;" horiz-adv-x="1458" 
d="M743 1669l-366 359h20l346 -134l347 134h20zM680 78q375 0 375 272q0 63 -26.5 115t-76 90.5t-106 66.5t-129.5 52l-152 51q-399 131 -399 487q0 136 76.5 234t200.5 145t280 47q292 0 491 -108v-461h-28q-32 110 -73 193t-97 146t-131.5 95.5t-167.5 32.5
q-146 0 -227.5 -56.5t-81.5 -154.5q0 -93 67.5 -167.5t222.5 -131.5l185 -65q52 -19 92.5 -36t88 -42.5t82.5 -52t69.5 -64.5t56.5 -80.5t35.5 -98.5t13.5 -120q0 -101 -33.5 -184t-92 -140.5t-139.5 -96.5t-173 -57t-195 -18q-141 0 -282 30.5t-248 88.5v510h28
q60 -253 178 -387.5t316 -134.5z" />
    <glyph glyph-name="scaron" unicode="&#x161;" horiz-adv-x="1028" 
d="M528 1204l-366 408h20l346 -164l346 164h21zM496 -29q-103 0 -193 25t-150.5 78t-60.5 125q0 51 31.5 82.5t85.5 31.5q40 0 66.5 -14.5t40.5 -38t24 -51.5t23 -56t32 -51.5t55.5 -38t88.5 -14.5q86 0 138 38.5t52 105.5q0 64 -52 111t-175 81l-84 23q-303 81 -303 327
q0 137 119 227.5t311 90.5q90 0 169 -21t132 -65.5t53 -104.5q0 -52 -32 -84.5t-85 -32.5q-39 0 -66 13t-41 33.5t-24 45.5t-22 50t-28.5 45.5t-49 33.5t-78.5 13q-72 0 -116 -34.5t-44 -90.5q0 -123 217 -182l84 -23q179 -47 255.5 -124t76.5 -210q0 -160 -129 -252
t-321 -92z" />
    <glyph glyph-name="uni0162" unicode="&#x162;" horiz-adv-x="1433" 
d="M885 1487v-1487h-336v1487h-535v125h1405v-125h-534zM596 -270q0 56 36 91.5t97 35.5q63 0 96 -42t33 -108q0 -111 -81 -194t-197 -131l-5 14q57 34 101.5 89t44.5 112q-52 5 -88.5 42.5t-36.5 90.5z" />
    <glyph glyph-name="uni0163" unicode="&#x163;" horiz-adv-x="901" 
d="M20 893v133h203v168l309 242v-410h365v-133h-365v-606q0 -99 32 -141t110 -42q57 0 104 29.5t99 104.5l32 -19q-114 -248 -368 -248q-168 0 -243 72t-75 240v610h-203zM301 -270q0 56 35.5 91.5t97.5 35.5q63 0 96 -42t33 -108q0 -111 -81 -194t-197 -131l-4 14
q57 34 101 89t44 112q-52 5 -88.5 42.5t-36.5 90.5z" />
    <glyph glyph-name="Tcaron" unicode="&#x164;" horiz-adv-x="1433" 
d="M721 1669l-367 359h21l346 -134l346 134h20zM885 1487v-1487h-336v1487h-535v125h1405v-125h-534z" />
    <glyph glyph-name="tcaron" unicode="&#x165;" horiz-adv-x="1060" 
d="M778 1516q0 55 35.5 90.5t97.5 35.5q63 0 96 -41.5t33 -107.5q0 -111 -81 -194.5t-197 -131.5l-4 15q57 34 101 88.5t44 111.5q-52 5 -88.5 43t-36.5 91zM20 893v133h203v168l309 242v-410h365v-133h-365v-606q0 -99 32 -141t110 -42q57 0 104 29.5t99 104.5l32 -19
q-114 -248 -368 -248q-168 0 -243 72t-75 240v610h-203z" />
    <glyph glyph-name="Tbar" unicode="&#x166;" horiz-adv-x="1433" 
d="M549 0v768h-289v129h289v590h-535v125h1405v-125h-534v-590h291v-129h-291v-768h-336z" />
    <glyph glyph-name="tbar" unicode="&#x167;" horiz-adv-x="921" 
d="M541 -29q-168 0 -243 72t-75 240v284h-198v111h198v215h-203v133h203v168l309 242v-410h365v-133h-365v-215h369v-111h-369v-280q0 -99 32 -141t110 -42q57 0 104 29.5t99 104.5l32 -19q-114 -248 -368 -248z" />
    <glyph glyph-name="Utilde" unicode="&#x168;" horiz-adv-x="1681" 
d="M1223 2003l92 117l14 -9l-96 -299h-528l-93 -116l-14 8l96 299h529zM178 1612h336v-1041q0 -132 29 -222.5t87.5 -141.5t135 -72.5t182.5 -21.5q238 0 349.5 125t111.5 374v1000h147v-1014q0 -322 -167.5 -474.5t-526.5 -152.5q-684 0 -684 598v1043z" />
    <glyph glyph-name="utilde" unicode="&#x169;" horiz-adv-x="1271" 
d="M956 1552l93 117l14 -8l-96 -299h-529l-92 -117l-14 8l96 299h528zM801 238q-85 -267 -350 -267q-76 0 -134.5 24t-93.5 62t-57.5 91.5t-30.5 106t-8 112.5v659h313v-713q0 -207 150 -207q81 0 128.5 32.5t82.5 99.5zM801 0v1026h313v-1026h-313z" />
    <glyph glyph-name="Umacron" unicode="&#x16a;" horiz-adv-x="1681" 
d="M590 1812v113h704v-113h-704zM178 1612h336v-1041q0 -132 29 -222.5t87.5 -141.5t135 -72.5t182.5 -21.5q238 0 349.5 125t111.5 374v1000h147v-1014q0 -322 -167.5 -474.5t-526.5 -152.5q-684 0 -684 598v1043z" />
    <glyph glyph-name="umacron" unicode="&#x16b;" horiz-adv-x="1271" 
d="M303 1341v113h705v-113h-705zM801 238q-85 -267 -350 -267q-76 0 -134.5 24t-93.5 62t-57.5 91.5t-30.5 106t-8 112.5v659h313v-713q0 -207 150 -207q81 0 128.5 32.5t82.5 99.5zM801 0v1026h313v-1026h-313z" />
    <glyph glyph-name="Ubreve" unicode="&#x16c;" horiz-adv-x="1681" 
d="M963 1794q102 0 165.5 58.5t69.5 175.5h100q-3 -82 -30.5 -144t-64.5 -96t-85.5 -55t-85 -27t-71.5 -6t-71.5 6t-85.5 27t-86 55t-64.5 96t-30.5 144h102q6 -117 70.5 -175.5t167.5 -58.5zM178 1612h336v-1041q0 -132 29 -222.5t87.5 -141.5t135 -72.5t182.5 -21.5
q238 0 349.5 125t111.5 374v1000h147v-1014q0 -322 -167.5 -474.5t-526.5 -152.5q-684 0 -684 598v1043z" />
    <glyph glyph-name="ubreve" unicode="&#x16d;" horiz-adv-x="1271" 
d="M655 1317q102 0 166 58t70 175h100q-3 -82 -30.5 -144t-64.5 -95.5t-86 -54.5t-85.5 -27t-71.5 -6t-71.5 6t-85.5 27t-86 54.5t-64.5 95.5t-30.5 144h103q6 -117 70 -175t167 -58zM801 238q-85 -267 -350 -267q-76 0 -134.5 24t-93.5 62t-57.5 91.5t-30.5 106t-8 112.5
v659h313v-713q0 -207 150 -207q81 0 128.5 32.5t82.5 99.5zM801 0v1026h313v-1026h-313z" />
    <glyph glyph-name="Uring" unicode="&#x16e;" horiz-adv-x="1681" 
d="M1163 1888q0 -84 -61 -142t-148 -58t-148 58t-61 142t61 142.5t148 58.5t148 -58.5t61 -142.5zM1065 1888q0 50 -32.5 81.5t-78.5 31.5q-47 0 -77.5 -32.5t-30.5 -80.5t30.5 -80t77.5 -32q52 0 81.5 31.5t29.5 80.5zM178 1612h336v-1041q0 -132 29 -222.5t87.5 -141.5
t135 -72.5t182.5 -21.5q238 0 349.5 125t111.5 374v1000h147v-1014q0 -322 -167.5 -474.5t-526.5 -152.5q-684 0 -684 598v1043z" />
    <glyph glyph-name="uring" unicode="&#x16f;" horiz-adv-x="1271" 
d="M844 1481q0 -84 -61 -142.5t-148 -58.5t-148 58.5t-61 142.5t61 142t148 58t148 -58t61 -142zM745 1481q0 50 -32 81t-78 31q-47 0 -78 -32t-31 -80t31 -80.5t78 -32.5q52 0 81 32t29 81zM801 238q-85 -267 -350 -267q-76 0 -134.5 24t-93.5 62t-57.5 91.5t-30.5 106
t-8 112.5v659h313v-713q0 -207 150 -207q81 0 128.5 32.5t82.5 99.5zM801 0v1026h313v-1026h-313z" />
    <glyph glyph-name="Uhungarumlaut" unicode="&#x170;" horiz-adv-x="1681" 
d="M1583 2028l-471 -340h-20l75 340h416zM1114 2028l-471 -340h-20l75 340h416zM178 1612h336v-1041q0 -132 29 -222.5t87.5 -141.5t135 -72.5t182.5 -21.5q238 0 349.5 125t111.5 374v1000h147v-1014q0 -322 -167.5 -474.5t-526.5 -152.5q-684 0 -684 598v1043z" />
    <glyph glyph-name="uhungarumlaut" unicode="&#x171;" horiz-adv-x="1271" 
d="M1282 1612l-471 -375h-20l137 375h354zM854 1612l-471 -375h-21l138 375h354zM801 238q-85 -267 -350 -267q-76 0 -134.5 24t-93.5 62t-57.5 91.5t-30.5 106t-8 112.5v659h313v-713q0 -207 150 -207q81 0 128.5 32.5t82.5 99.5zM801 0v1026h313v-1026h-313z" />
    <glyph glyph-name="Uogonek" unicode="&#x172;" horiz-adv-x="1681" 
d="M877 -498q-86 0 -147.5 43t-61.5 129q0 160 245 297h-51q-684 0 -684 598v1043h336v-1041q0 -132 29 -222.5t87.5 -141.5t135 -72.5t182.5 -21.5q238 0 349.5 125t111.5 374v1000h147v-1014q0 -302 -145 -454t-457 -171q-47 -47 -78.5 -114.5t-31.5 -130.5
q0 -68 40.5 -115t106.5 -47q33 0 68 12l6 -16q-93 -60 -188 -60z" />
    <glyph glyph-name="uogonek" unicode="&#x173;" horiz-adv-x="1271" 
d="M801 238q-85 -267 -350 -267q-76 0 -134.5 24t-93.5 62t-57.5 91.5t-30.5 106t-8 112.5v659h313v-713q0 -207 150 -207q81 0 128.5 32.5t82.5 99.5zM1014 0h-213v1026h313v-1026h-80q-56 -43 -98.5 -121.5t-42.5 -150.5q0 -68 40.5 -115t106.5 -47q34 0 68 12l6 -16
q-93 -60 -188 -60q-86 0 -147.5 43t-61.5 129q0 171 297 326z" />
    <glyph glyph-name="Wcircumflex" unicode="&#x174;" horiz-adv-x="2267" 
d="M1229 1831l-346 -143h-21l367 368l366 -368h-20zM2054 1612h146l-392 -1612h-342l-364 1307l-297 -1307h-342l-395 1612h368l297 -1348l307 1348h328l369 -1346z" />
    <glyph glyph-name="wcircumflex" unicode="&#x175;" horiz-adv-x="1683" 
d="M944 1401l-346 -164h-20l366 408l367 -408h-21zM799 1026h270l219 -774l244 774h137l-328 -1026h-309l-207 709l-172 -709h-309l-330 1026h357l229 -774z" />
    <glyph glyph-name="Ycircumflex" unicode="&#x176;" horiz-adv-x="1470" 
d="M838 1831l-346 -143h-21l367 368l366 -368h-20zM537 0v639l-523 973h377l428 -813l492 813h145l-584 -975v-637h-335z" />
    <glyph glyph-name="ycircumflex" unicode="&#x177;" horiz-adv-x="1163" 
d="M666 1401l-347 -164h-20l367 408l366 -408h-20zM14 1026h357l317 -707l322 707h139l-715 -1524h-139l223 461z" />
    <glyph glyph-name="Ydieresis" unicode="&#x178;" horiz-adv-x="1470" 
d="M926 1868q0 66 46.5 113t112.5 47t113 -47t47 -113t-47 -113t-113 -47t-112.5 47t-46.5 113zM387 1868q0 66 47 113t113 47t113 -47t47 -113t-47 -113t-113 -47t-113 47t-47 113zM537 0v639l-523 973h377l428 -813l492 813h145l-584 -975v-637h-335z" />
    <glyph glyph-name="Zacute" unicode="&#x179;" horiz-adv-x="1427" 
d="M1163 2028l-471 -340h-20l76 340h415zM1352 1487l-938 -1362h919v-125h-1286v125l938 1362h-846v125h1213v-125z" />
    <glyph glyph-name="zacute" unicode="&#x17a;" horiz-adv-x="1083" 
d="M1012 1612l-471 -375h-21l137 375h355zM1008 913l-580 -800h563v-113h-925v113l579 800h-518v113h881v-113z" />
    <glyph glyph-name="Zdotaccent" unicode="&#x17b;" horiz-adv-x="1427" 
d="M618 1868q0 66 47 113t113 47t113 -47t47 -113t-47 -113t-113 -47t-113 47t-47 113zM1352 1487l-938 -1362h919v-125h-1286v125l938 1362h-846v125h1213v-125z" />
    <glyph glyph-name="zdotaccent" unicode="&#x17c;" horiz-adv-x="1083" 
d="M449 1444q0 66 46.5 113t112.5 47t113 -47t47 -113t-47 -113t-113 -47t-112.5 47t-46.5 113zM1008 913l-580 -800h563v-113h-925v113l579 800h-518v113h881v-113z" />
    <glyph glyph-name="Zcaron" unicode="&#x17d;" horiz-adv-x="1427" 
d="M784 1669l-366 359h20l346 -134l346 134h21zM1352 1487l-938 -1362h919v-125h-1286v125l938 1362h-846v125h1213v-125z" />
    <glyph glyph-name="zcaron" unicode="&#x17e;" horiz-adv-x="1083" 
d="M582 1204l-367 408h21l346 -164l346 164h20zM1008 913l-580 -800h563v-113h-925v113l579 800h-518v113h881v-113z" />
    <glyph glyph-name="uni0218" unicode="&#x218;" horiz-adv-x="1458" 
d="M680 78q375 0 375 272q0 63 -26.5 115t-76 90.5t-106 66.5t-129.5 52l-152 51q-399 131 -399 487q0 136 76.5 234t200.5 145t280 47q292 0 491 -108v-461h-28q-32 110 -73 193t-97 146t-131.5 95.5t-167.5 32.5q-146 0 -227.5 -56.5t-81.5 -154.5q0 -93 67.5 -167.5
t222.5 -131.5l185 -65q52 -19 92.5 -36t88 -42.5t82.5 -52t69.5 -64.5t56.5 -80.5t35.5 -98.5t13.5 -120q0 -101 -33.5 -184t-92 -140.5t-139.5 -96.5t-173 -57t-195 -18q-141 0 -282 30.5t-248 88.5v510h28q60 -253 178 -387.5t316 -134.5zM553 -270q0 56 35.5 91.5
t97.5 35.5q63 0 96 -42t33 -108q0 -111 -81 -194t-197 -131l-5 14q57 34 101.5 89t44.5 112q-52 5 -88.5 42.5t-36.5 90.5z" />
    <glyph glyph-name="uni0219" unicode="&#x219;" horiz-adv-x="1028" 
d="M496 -29q-103 0 -193 25t-150.5 78t-60.5 125q0 51 31.5 82.5t85.5 31.5q40 0 66.5 -14.5t40.5 -38t24 -51.5t23 -56t32 -51.5t55.5 -38t88.5 -14.5q86 0 138 38.5t52 105.5q0 64 -52 111t-175 81l-84 23q-303 81 -303 327q0 137 119 227.5t311 90.5q90 0 169 -21
t132 -65.5t53 -104.5q0 -52 -32 -84.5t-85 -32.5q-39 0 -66 13t-41 33.5t-24 45.5t-22 50t-28.5 45.5t-49 33.5t-78.5 13q-72 0 -116 -34.5t-44 -90.5q0 -123 217 -182l84 -23q179 -47 255.5 -124t76.5 -210q0 -160 -129 -252t-321 -92zM408 -270q0 56 36 91.5t97 35.5
q63 0 96 -42t33 -108q0 -58 -24.5 -110.5t-66 -92.5t-88 -70t-100.5 -52l-4 14q57 34 101 89t44 112q-52 5 -88 42.5t-36 90.5z" />
    <glyph glyph-name="uni021A" unicode="&#x21a;" horiz-adv-x="1433" 
d="M885 1487v-1487h-336v1487h-535v125h1405v-125h-534zM596 -270q0 56 36 91.5t97 35.5q63 0 96 -42t33 -108q0 -111 -81 -194t-197 -131l-5 14q57 34 101.5 89t44.5 112q-52 5 -88.5 42.5t-36.5 90.5z" />
    <glyph glyph-name="uni021B" unicode="&#x21b;" horiz-adv-x="901" 
d="M20 893v133h203v168l309 242v-410h365v-133h-365v-606q0 -99 32 -141t110 -42q57 0 104 29.5t99 104.5l32 -19q-114 -248 -368 -248q-168 0 -243 72t-75 240v610h-203zM301 -270q0 56 35.5 91.5t97.5 35.5q63 0 96 -42t33 -108q0 -111 -81 -194t-197 -131l-4 14
q57 34 101 89t44 112q-52 5 -88.5 42.5t-36.5 90.5z" />
    <glyph glyph-name="uni0232" unicode="&#x232;" horiz-adv-x="1470" 
d="M465 1812v113h704v-113h-704zM537 0v639l-523 973h377l428 -813l492 813h145l-584 -975v-637h-335z" />
    <glyph glyph-name="uni0233" unicode="&#x233;" horiz-adv-x="1163" 
d="M293 1341v113h704v-113h-704zM14 1026h357l317 -707l322 707h139l-715 -1524h-139l223 461z" />
    <glyph glyph-name="uni0237" unicode="&#x237;" 
d="M158 12v1014h313v-895q0 -70 -13.5 -131.5t-36.5 -112t-63 -98t-82 -85.5t-105 -79.5t-121 -74.5t-140 -76l-16 26q66 56 104 91t71.5 75t48 68.5t25.5 74t13 88.5t2 115z" />
    <glyph glyph-name="circumflex" unicode="&#x2c6;" horiz-adv-x="831" 
d="M416 1401l-346 -164h-21l367 408l366 -408h-20z" />
    <glyph glyph-name="caron" unicode="&#x2c7;" horiz-adv-x="831" 
d="M416 1204l-367 408h21l346 -164l346 164h20z" />
    <glyph glyph-name="breve" unicode="&#x2d8;" horiz-adv-x="774" 
d="M389 1317q102 0 166 58t70 175h100q-3 -82 -30.5 -144t-64.5 -95.5t-86 -54.5t-85.5 -27t-71.5 -6t-71.5 6t-85.5 27t-86 54.5t-64.5 95.5t-30.5 144h103q6 -117 70 -175t167 -58z" />
    <glyph glyph-name="dotaccent" unicode="&#x2d9;" horiz-adv-x="442" 
d="M61 1444q0 66 47 113t113 47t113 -47t47 -113t-47 -113t-113 -47t-113 47t-47 113z" />
    <glyph glyph-name="ring" unicode="&#x2da;" horiz-adv-x="516" 
d="M467 1481q0 -84 -61 -142.5t-148 -58.5t-148 58.5t-61 142.5t61 142t148 58t148 -58t61 -142zM369 1481q0 50 -32.5 81t-78.5 31q-47 0 -77.5 -32t-30.5 -80t30.5 -80.5t77.5 -32.5q52 0 81.5 32t29.5 81z" />
    <glyph glyph-name="ogonek" unicode="&#x2db;" horiz-adv-x="495" 
d="M440 -422l6 -16q-93 -60 -188 -60q-86 0 -147.5 43t-61.5 129q0 171 297 326h21q-57 -43 -99.5 -121.5t-42.5 -150.5q0 -68 41 -115t107 -47q33 0 67 12z" />
    <glyph glyph-name="tilde" unicode="&#x2dc;" horiz-adv-x="829" 
d="M674 1552l92 117l14 -8l-96 -299h-528l-93 -117l-14 8l96 299h529z" />
    <glyph glyph-name="hungarumlaut" unicode="&#x2dd;" horiz-adv-x="1017" 
d="M969 1612l-471 -375h-21l137 375h355zM541 1612l-471 -375h-21l137 375h355z" />
    <glyph glyph-name="uni0394" unicode="&#x394;" horiz-adv-x="1349" 
d="M14 0l662 1354l659 -1354h-1321zM1133 123l-457 952l-457 -952h914z" />
    <glyph glyph-name="uni03A9" unicode="&#x3a9;" horiz-adv-x="1568" 
d="M117 788q0 142 57 258t152 188.5t212.5 111t245.5 38.5q101 0 197.5 -24t182 -73t149.5 -119t101.5 -168t37.5 -212q0 -107 -35 -201t-93 -160.5t-126 -112t-141 -66.5v-125h356v-123h-495v332q184 34 292.5 156.5t108.5 304.5q0 146 -72.5 257t-193.5 168.5t-269 57.5
q-146 0 -266.5 -57.5t-194 -169t-73.5 -256.5q0 -182 108.5 -304.5t292.5 -156.5v-332h-495v123h356v125q-73 21 -141 66.5t-126 112t-93 160.5t-35 201z" />
    <glyph glyph-name="pi" unicode="&#x3c0;" horiz-adv-x="1255" 
d="M348 0h-131v881h-141v123h1081v-123h-143v-613q0 -39 0.5 -55.5t4 -38.5t10.5 -29t21.5 -16t34.5 -10.5t52 -1.5h22v-117h-61q-68 0 -107.5 9t-65.5 37.5t-35 74.5t-9 125v635h-533v-881z" />
    <glyph glyph-name="Wgrave" unicode="&#x1e80;" horiz-adv-x="2267" 
d="M1270 1688l-471 340h415l76 -340h-20zM2054 1612h146l-392 -1612h-342l-364 1307l-297 -1307h-342l-395 1612h368l297 -1348l307 1348h328l369 -1346z" />
    <glyph glyph-name="wgrave" unicode="&#x1e81;" horiz-adv-x="1683" 
d="M1006 1237l-471 375h354l137 -375h-20zM799 1026h270l219 -774l244 774h137l-328 -1026h-309l-207 709l-172 -709h-309l-330 1026h357l229 -774z" />
    <glyph glyph-name="Wacute" unicode="&#x1e82;" horiz-adv-x="2267" 
d="M1579 2028l-471 -340h-21l76 340h416zM2054 1612h146l-392 -1612h-342l-364 1307l-297 -1307h-342l-395 1612h368l297 -1348l307 1348h328l369 -1346z" />
    <glyph glyph-name="wacute" unicode="&#x1e83;" horiz-adv-x="1683" 
d="M1313 1612l-471 -375h-21l137 375h355zM799 1026h270l219 -774l244 774h137l-328 -1026h-309l-207 709l-172 -709h-309l-330 1026h357l229 -774z" />
    <glyph glyph-name="Wdieresis" unicode="&#x1e84;" horiz-adv-x="2267" 
d="M1319 1868q0 66 47 113t113 47t112.5 -47t46.5 -113t-46.5 -113t-112.5 -47t-113 47t-47 113zM780 1868q0 66 47 113t113 47t113 -47t47 -113t-47 -113t-113 -47t-113 47t-47 113zM2054 1612h146l-392 -1612h-342l-364 1307l-297 -1307h-342l-395 1612h368l297 -1348
l307 1348h328l369 -1346z" />
    <glyph glyph-name="wdieresis" unicode="&#x1e85;" horiz-adv-x="1683" 
d="M991 1444q0 66 47 113t113 47t113 -47t47 -113t-47 -113t-113 -47t-113 47t-47 113zM494 1444q0 66 46.5 113t112.5 47t113 -47t47 -113t-47 -113t-113 -47t-112.5 47t-46.5 113zM799 1026h270l219 -774l244 774h137l-328 -1026h-309l-207 709l-172 -709h-309l-330 1026
h357l229 -774z" />
    <glyph glyph-name="uni1ECA" unicode="&#x1eca;" horiz-adv-x="733" 
d="M199 0v1612h336v-1612h-336zM213 -295q0 66 47 113t113 47t112.5 -47t46.5 -113t-46.5 -113t-112.5 -47t-113 47t-47 113z" />
    <glyph glyph-name="uni1ECB" unicode="&#x1ecb;" 
d="M133 1407q0 75 53.5 128.5t128.5 53.5t129 -53.5t54 -128.5t-54 -128.5t-129 -53.5t-128.5 53.5t-53.5 128.5zM471 1026v-1026h-313v1026h313zM154 -295q0 66 46.5 113t112.5 47t113 -47t47 -113t-47 -113t-113 -47t-112.5 47t-46.5 113z" />
    <glyph glyph-name="uni1ECC" unicode="&#x1ecc;" horiz-adv-x="1974" 
d="M106 805q0 250 114.5 440.5t314 291.5t452.5 101t452.5 -101t314 -291.5t114.5 -440.5t-114.5 -441t-314 -292t-452.5 -101t-452.5 101t-314 292t-114.5 441zM1513 805q0 150 -27.5 273t-75.5 208t-115 143t-144 84.5t-164 26.5q-109 0 -202 -43.5t-166.5 -130
t-115.5 -230.5t-42 -331t42 -331t115.5 -230.5t166.5 -130t202 -43.5q87 0 164 26.5t144 84.5t115 143t75.5 208t27.5 273zM793 -295q0 66 46.5 113t112.5 47t113 -47t47 -113t-47 -113t-113 -47t-112.5 47t-46.5 113z" />
    <glyph glyph-name="uni1ECD" unicode="&#x1ecd;" horiz-adv-x="1294" 
d="M1208 510q0 -113 -39.5 -212t-111 -171.5t-177.5 -114t-233 -41.5t-233 41.5t-177.5 114t-111 171.5t-39.5 212t39.5 212t111 171.5t177.5 114t233 41.5t233 -41.5t177.5 -114t111 -171.5t39.5 -212zM881 510q0 68 -5.5 128t-21 124t-40.5 109t-68 74.5t-99 29.5
t-99 -29.5t-67.5 -74.5t-40 -109t-21 -124t-5.5 -128t5.5 -128t21 -124t40 -109t67.5 -74.5t99 -29.5t99 29.5t68 74.5t40.5 109t21 124t5.5 128zM467 -295q0 66 47 113t113 47t112.5 -47t46.5 -113t-46.5 -113t-112.5 -47t-113 47t-47 113z" />
    <glyph glyph-name="uni1EE4" unicode="&#x1ee4;" horiz-adv-x="1681" 
d="M178 1612h336v-1041q0 -132 29 -222.5t87.5 -141.5t135 -72.5t182.5 -21.5q238 0 349.5 125t111.5 374v1000h147v-1014q0 -322 -167.5 -474.5t-526.5 -152.5q-684 0 -684 598v1043zM772 -295q0 66 47 113t113 47t113 -47t47 -113t-47 -113t-113 -47t-113 47t-47 113z" />
    <glyph glyph-name="uni1EE5" unicode="&#x1ee5;" horiz-adv-x="1271" 
d="M801 238q-85 -267 -350 -267q-76 0 -134.5 24t-93.5 62t-57.5 91.5t-30.5 106t-8 112.5v659h313v-713q0 -207 150 -207q81 0 128.5 32.5t82.5 99.5zM801 0v1026h313v-1026h-313zM465 -295q0 66 47 113t113 47t112.5 -47t46.5 -113t-46.5 -113t-112.5 -47t-113 47t-47 113
z" />
    <glyph glyph-name="Ygrave" unicode="&#x1ef2;" horiz-adv-x="1470" 
d="M920 1688l-471 340h415l76 -340h-20zM537 0v639l-523 973h377l428 -813l492 813h145l-584 -975v-637h-335z" />
    <glyph glyph-name="ygrave" unicode="&#x1ef3;" horiz-adv-x="1163" 
d="M766 1237l-471 375h354l137 -375h-20zM14 1026h357l317 -707l322 707h139l-715 -1524h-139l223 461z" />
    <glyph glyph-name="endash" unicode="&#x2013;" horiz-adv-x="894" 
d="M836 457h-779v123h779v-123z" />
    <glyph glyph-name="emdash" unicode="&#x2014;" horiz-adv-x="1314" 
d="M1260 457h-1205v123h1205v-123z" />
    <glyph glyph-name="quoteleft" unicode="&#x2018;" horiz-adv-x="634" 
d="M518 1167q0 -85 -57.5 -142.5t-143.5 -57.5q-91 0 -145.5 59.5t-54.5 157.5q0 80 38 168t111 165t164 117l6 -14q-45 -34 -77.5 -116t-32.5 -146q87 0 139.5 -53t52.5 -138z" />
    <glyph glyph-name="quoteright" unicode="&#x2019;" horiz-adv-x="634" 
d="M117 1434q0 85 57 142.5t143 57.5q91 0 146 -59.5t55 -157.5q0 -80 -38 -168t-111 -165t-164 -117l-6 14q45 34 77.5 116t32.5 146q-87 0 -139.5 53t-52.5 138z" />
    <glyph glyph-name="quotesinglbase" unicode="&#x201a;" horiz-adv-x="634" 
d="M117 172q0 85 57 143t143 58q91 0 146 -59.5t55 -157.5q0 -80 -38 -168t-111 -165.5t-164 -117.5l-6 14q45 34 77.5 116.5t32.5 146.5q-87 0 -139.5 52.5t-52.5 137.5z" />
    <glyph glyph-name="quotedblleft" unicode="&#x201c;" horiz-adv-x="1122" 
d="M1006 1167q0 -85 -57.5 -142.5t-143.5 -57.5q-91 0 -146 59.5t-55 157.5q0 80 38.5 168t111.5 165t164 117l6 -14q-45 -34 -78 -116t-33 -146q87 0 140 -53t53 -138zM518 1167q0 -85 -57.5 -142.5t-143.5 -57.5q-91 0 -145.5 59.5t-54.5 157.5q0 80 38 168t111 165
t164 117l6 -14q-45 -34 -77.5 -116t-32.5 -146q87 0 139.5 -53t52.5 -138z" />
    <glyph glyph-name="quotedblright" unicode="&#x201d;" horiz-adv-x="1122" 
d="M117 1434q0 85 57 142.5t143 57.5q91 0 146 -59.5t55 -157.5q0 -80 -38 -168t-111 -165t-164 -117l-6 14q45 34 77.5 116t32.5 146q-87 0 -139.5 53t-52.5 138zM604 1434q0 85 57.5 142.5t143.5 57.5q91 0 146 -59.5t55 -157.5q0 -80 -38.5 -168t-111.5 -165t-164 -117
l-6 14q45 34 78 116t33 146q-87 0 -140 53t-53 138z" />
    <glyph glyph-name="quotedblbase" unicode="&#x201e;" horiz-adv-x="1122" 
d="M604 172q0 85 57.5 143t143.5 58q91 0 146 -59.5t55 -157.5q0 -80 -38.5 -168t-111.5 -165.5t-164 -117.5l-6 14q45 34 78 116.5t33 146.5q-87 0 -140 52.5t-53 137.5zM117 172q0 85 57 143t143 58q91 0 146 -59.5t55 -157.5q0 -80 -38 -168t-111 -165.5t-164 -117.5
l-6 14q45 34 77.5 116.5t32.5 146.5q-87 0 -139.5 52.5t-52.5 137.5z" />
    <glyph glyph-name="dagger" unicode="&#x2020;" horiz-adv-x="987" 
d="M559 0h-131v1055h-389v123h389v434h131v-434h389v-123h-389v-1055z" />
    <glyph glyph-name="daggerdbl" unicode="&#x2021;" horiz-adv-x="1101" 
d="M616 594h390v-125h-390v-469h-131v469h-389v125h389v489h-389v125h389v404h131v-404h390v-125h-390v-489z" />
    <glyph glyph-name="bullet" unicode="&#x2022;" horiz-adv-x="837" 
d="M76 530q0 139 99 238.5t237 99.5q148 0 249 -98.5t101 -239.5q0 -148 -100.5 -248t-249.5 -100q-139 0 -237.5 100.5t-98.5 247.5z" />
    <glyph glyph-name="ellipsis" unicode="&#x2026;" horiz-adv-x="1929" 
d="M1411 172q0 83 59 142t142 59t141.5 -59t58.5 -142t-58.5 -142t-141.5 -59t-142 59t-59 142zM764 172q0 83 59 142t142 59t141.5 -59t58.5 -142t-58.5 -142t-141.5 -59t-142 59t-59 142zM117 172q0 83 58.5 142t141.5 59t142 -59t59 -142t-59 -142t-142 -59t-141.5 59
t-58.5 142z" />
    <glyph glyph-name="perthousand" unicode="&#x2030;" horiz-adv-x="2727" 
d="M70 1155q0 199 103 319.5t261 120.5t261.5 -120.5t103.5 -319.5q0 -200 -103.5 -323t-261.5 -123t-261 123t-103 323zM498 0h-131l1024 1538h131zM256 1155q0 -191 39 -287t139 -96q52 0 87 26t54 78t27 118.5t8 160.5q0 92 -8 157.5t-27 117.5t-54 78t-87 26t-87.5 -26
t-55 -77.5t-27.5 -118t-8 -157.5zM1929 420q0 199 103.5 319.5t261.5 120.5t261 -120.5t103 -319.5q0 -200 -103 -323.5t-261 -123.5t-261.5 123.5t-103.5 323.5zM1090 420q0 199 103 319.5t261 120.5t261.5 -120.5t103.5 -319.5q0 -200 -103.5 -323.5t-261.5 -123.5
t-261 123.5t-103 323.5zM2116 420q0 -92 8 -159t27.5 -120t55 -79.5t87.5 -26.5t87 26.5t54 79.5t27 119.5t8 159.5q0 91 -8 156.5t-27 117t-54 77.5t-87 26q-100 0 -139 -95t-39 -282zM1276 420q0 -92 8 -159t27.5 -120t55 -79.5t87.5 -26.5t87 26.5t54 79.5t27 119.5
t8 159.5q0 91 -8 156.5t-27 117t-54 77.5t-87 26q-100 0 -139 -95t-39 -282z" />
    <glyph glyph-name="guilsinglleft" unicode="&#x2039;" horiz-adv-x="665" 
d="M528 72h-92l-381 440l381 438h92l-188 -438z" />
    <glyph glyph-name="guilsinglright" unicode="&#x203a;" horiz-adv-x="667" 
d="M137 72l191 440l-191 438h94l381 -438l-381 -440h-94z" />
    <glyph glyph-name="Euro" unicode="&#x20ac;" horiz-adv-x="1884" 
d="M1726 528v-413q-152 -78 -282 -111t-287 -33q-149 0 -273 29.5t-213 80.5t-156 124t-107 155.5t-60 178.5h-334l62 112h256q-4 62 -4 90q0 53 6 105h-320l62 112h276q22 95 62.5 175t107.5 151t155 120.5t210.5 78t269.5 28.5q298 0 561 -143v-414h-26
q-69 235 -200.5 351t-342.5 116q-206 0 -321 -111.5t-150 -351.5h508l-62 -112h-456q-2 -33 -2 -105q0 -59 2 -90h366l-61 -112h-295q31 -249 145.5 -363.5t325.5 -114.5q212 0 347.5 116.5t203.5 350.5h26z" />
    <glyph glyph-name="trademark" unicode="&#x2122;" horiz-adv-x="1634" 
d="M272 850v647h-243v115h612v-115h-246v-647h-123zM1208 850h-137l-229 639v-639h-121v762h209l215 -615l207 615h207v-762h-121v639z" />
    <glyph glyph-name="partialdiff" unicode="&#x2202;" horiz-adv-x="1056" 
d="M981 578q0 -152 -34.5 -269t-97 -189t-145.5 -108.5t-184 -36.5q-203 0 -323.5 140.5t-120.5 384.5q0 240 121.5 380t314.5 140q97 0 174 -37.5t121 -101.5l2 2q-55 157 -200 267.5t-316 117.5v121q314 -25 501 -244.5t187 -566.5zM520 90q63 0 119 24.5t102.5 72.5
t73.5 128.5t27 184.5q0 103 -27 183t-73 127t-102 71t-120 24q-142 0 -224.5 -107t-82.5 -298t82.5 -300.5t224.5 -109.5z" />
    <glyph glyph-name="product" unicode="&#x220f;" horiz-adv-x="1249" 
d="M266 -354h-131v1966h979v-1966h-133v1843h-715v-1843z" />
    <glyph glyph-name="summation" unicode="&#x2211;" horiz-adv-x="1075" 
d="M39 117l543 684l-543 694v117h995v-123h-839l540 -688l-540 -678h839v-123h-995v117z" />
    <glyph glyph-name="minus" unicode="&#x2212;" horiz-adv-x="1089" 
d="M57 578h975v-123h-975v123z" />
    <glyph glyph-name="radical" unicode="&#x221a;" horiz-adv-x="1005" 
d="M-6 420l254 115l311 -723l299 1800h129l-332 -1966h-161l-314 712l-131 -59z" />
    <glyph glyph-name="infinity" unicode="&#x221e;" horiz-adv-x="1462" 
d="M1098 780q148 0 237.5 -83t89.5 -222q0 -140 -86.5 -221.5t-228.5 -81.5q-196 0 -383 213q-87 -102 -176 -157.5t-193 -55.5q-148 0 -235.5 82t-87.5 221q0 140 88.5 222.5t236.5 82.5q97 0 186.5 -48t184.5 -159q97 110 183 158.5t184 48.5zM1094 674q-74 0 -140 -46.5
t-149 -146.5q88 -108 157 -155t146 -47q80 0 134 53.5t54 142.5q0 86 -55.5 142.5t-146.5 56.5zM360 279q79 0 148.5 52.5t144.5 145.5q-81 100 -152.5 148.5t-148.5 48.5q-81 0 -135.5 -54t-54.5 -145q0 -83 55.5 -139.5t142.5 -56.5z" />
    <glyph glyph-name="integral" unicode="&#x222b;" horiz-adv-x="464" 
d="M176 274v902q0 241 64 343.5t188 102.5q61 0 99 -28t38 -78q0 -37 -21.5 -60.5t-56.5 -23.5q-34 0 -52.5 18.5t-18.5 48.5q0 37 20 57q-78 0 -106.5 -63t-28.5 -197q0 -52 2 -155t2 -162v-907q0 -123 -17 -209t-51 -136t-78.5 -72t-105.5 -22q-62 0 -99.5 27.5
t-37.5 79.5q0 37 22.5 60.5t57.5 23.5q34 0 53 -20t19 -50t-21 -57q77 0 105 63.5t28 198.5q0 51 -2 153.5t-2 161.5z" />
    <glyph glyph-name="approxequal" unicode="&#x2248;" horiz-adv-x="1144" 
d="M788 696q56 0 92 35.5t40 102.5h129q-7 -122 -77.5 -188t-183.5 -66q-52 0 -114.5 21.5t-110 47t-105 47t-100.5 21.5q-56 0 -91.5 -35t-39.5 -102h-131q7 122 78 188t184 66q61 0 127 -21.5t112.5 -47.5t99.5 -47.5t91 -21.5zM788 352q57 0 92.5 34t39.5 103h129
q-7 -122 -77.5 -189t-183.5 -67q-52 0 -114.5 21.5t-110 47.5t-105 47.5t-100.5 21.5q-57 0 -92 -34.5t-39 -103.5h-131q7 122 78 189t184 67q61 0 127 -21.5t112.5 -47t99.5 -47t91 -21.5z" />
    <glyph glyph-name="notequal" unicode="&#x2260;" horiz-adv-x="1079" 
d="M1004 266h-533l-180 -311l-115 59l146 252h-246v131h321l144 250h-465v131h540l154 269l115 -62l-119 -207h238v-131h-314l-143 -250h457v-131z" />
    <glyph glyph-name="lessequal" unicode="&#x2264;" horiz-adv-x="1181" 
d="M248 625l856 -267v-135l-1026 342v119l1026 342v-135zM76 0v123h1030v-123h-1030z" />
    <glyph glyph-name="greaterequal" unicode="&#x2265;" horiz-adv-x="1181" 
d="M934 625l-856 266v135l1026 -342v-119l-1026 -342v135zM1106 0h-1030v123h1030v-123z" />
    <glyph glyph-name="lozenge" unicode="&#x25ca;" horiz-adv-x="1081" 
d="M76 655l467 791l463 -791l-463 -790zM543 1214l-322 -559l322 -559l319 559z" />
    <glyph glyph-name="uniF6C3" unicode="&#xf6c3;" horiz-adv-x="552" 
d="M143 -270q0 56 35.5 91.5t97.5 35.5q63 0 96.5 -42t33.5 -108q0 -58 -24.5 -110.5t-66 -92.5t-88 -70t-100.5 -52l-4 14q57 34 101 89t44 112q-52 5 -88.5 42.5t-36.5 90.5z" />
    <glyph glyph-name="fi" unicode="&#xfb01;" horiz-adv-x="1411" 
d="M915 1407q0 75 54 128.5t129 53.5t128.5 -53.5t53.5 -128.5t-53.5 -128.5t-128.5 -53.5t-129 53.5t-54 128.5zM1253 1026v-1026h-313v1026h313zM819 893h-293v-893h-313v893h-207v133h207q5 122 33.5 224t74 172.5t105 120t126 72.5t136.5 23q92 0 145.5 -38.5
t53.5 -104.5q0 -54 -32 -90.5t-91 -36.5q-38 0 -65 13.5t-43.5 32t-32 37.5t-40 32.5t-57.5 13.5q-54 0 -80 -43t-22.5 -112t26.5 -151.5t62 -164.5h307v-133z" />
    <glyph glyph-name="fl" unicode="&#xfb02;" horiz-adv-x="1447" 
d="M1290 1612v-1612h-313v1612h313zM819 893h-293v-893h-313v893h-207v133h207q5 122 33.5 224t74 172.5t105 120t126 72.5t136.5 23q92 0 145.5 -38.5t53.5 -104.5q0 -54 -32 -90.5t-91 -36.5q-38 0 -65 13.5t-43.5 32t-32 37.5t-40 32.5t-57.5 13.5q-54 0 -80 -43
t-22.5 -112t26.5 -151.5t62 -164.5h307v-133z" />
    <glyph glyph-name="NULL" horiz-adv-x="0" 
 />
    <glyph glyph-name="CR" horiz-adv-x="450" 
 />
    <glyph glyph-name="acute.case" horiz-adv-x="614" 
d="M553 2028l-471 -340h-21l76 340h416z" />
    <glyph glyph-name="breve.case" horiz-adv-x="774" 
d="M389 1794q102 0 166 58.5t70 175.5h100q-3 -82 -30.5 -144t-64.5 -96t-86 -55t-85.5 -27t-71.5 -6t-71.5 6t-85.5 27t-86 55t-64.5 96t-30.5 144h103q6 -117 70 -175.5t167 -58.5z" />
    <glyph glyph-name="caron.case" horiz-adv-x="831" 
d="M416 1669l-367 359h21l346 -134l346 134h20z" />
    <glyph glyph-name="cedilla.case" horiz-adv-x="468" 
d="M186 -8h62l-109 -221q62 45 133 45q62 0 105 -36.5t43 -96.5q0 -61 -36.5 -111.5t-93 -80.5t-119 -46t-120.5 -16l-2 12q93 16 149 86t56 139q0 36 -17 57t-49 21q-19 0 -59 -16l-49 39z" />
    <glyph glyph-name="circumflex.case" horiz-adv-x="831" 
d="M416 1831l-346 -143h-21l367 368l366 -368h-20z" />
    <glyph glyph-name="dieresis.case" horiz-adv-x="980" 
d="M600 1868q0 66 47 113t113 47t113 -47t47 -113t-47 -113t-113 -47t-113 47t-47 113zM61 1868q0 66 47 113t113 47t113 -47t47 -113t-47 -113t-113 -47t-113 47t-47 113z" />
    <glyph glyph-name="dot" 
d="M133 1407q0 75 53.5 128.5t128.5 53.5t129 -53.5t54 -128.5t-54 -128.5t-129 -53.5t-128.5 53.5t-53.5 128.5z" />
    <glyph glyph-name="dotaccent.case" horiz-adv-x="442" 
d="M61 1868q0 66 47 113t113 47t113 -47t47 -113t-47 -113t-113 -47t-113 47t-47 113z" />
    <glyph glyph-name="grave.case" horiz-adv-x="614" 
d="M532 1688l-471 340h416l76 -340h-21z" />
    <glyph glyph-name="hungarumlaut.case" horiz-adv-x="1017" 
d="M1010 2028l-471 -340h-21l76 340h416zM541 2028l-471 -340h-21l76 340h416z" />
    <glyph glyph-name="macron.case" horiz-adv-x="802" 
d="M49 1812v113h705v-113h-705z" />
    <glyph glyph-name="ogonek.case" horiz-adv-x="495" 
d="M258 -498q-86 0 -147.5 43t-61.5 129q0 171 297 326h21q-57 -43 -99.5 -121.5t-42.5 -150.5q0 -68 41 -115t107 -47q33 0 67 12l6 -16q-93 -60 -188 -60z" />
    <glyph glyph-name="ring.case" horiz-adv-x="516" 
d="M467 1888q0 -84 -61 -142t-148 -58t-148 58t-61 142t61 142.5t148 58.5t148 -58.5t61 -142.5zM369 1888q0 50 -32.5 81.5t-78.5 31.5q-47 0 -77.5 -32.5t-30.5 -80.5t30.5 -80t77.5 -32q52 0 81.5 31.5t29.5 80.5z" />
    <glyph glyph-name="tilde.case" horiz-adv-x="829" 
d="M674 2003l92 117l14 -9l-96 -299h-528l-93 -116l-14 8l96 299h529z" />
    </font>
</defs>
</svg>
